{"glyphs":{"0":{"ha":825,"x_min":-4,"x_max":794,"o":"m 47 169 q 31 212 47 169 q 5 357 14 255 q 10 569 -4 458 q 60 768 24 680 q 100 869 77 825 q 150 944 124 913 q 209 998 176 975 q 273 1033 242 1020 q 343 1054 304 1046 q 415 1064 382 1061 q 489 1067 448 1067 l 504 1067 q 602 1048 559 1067 q 682 987 644 1029 q 768 821 743 928 q 784 599 794 713 q 736 372 774 485 q 639 184 698 259 q 489 54 581 110 q 306 -1 397 -1 q 211 10 262 -1 q 135 41 160 21 q 47 169 81 82 m 259 542 q 275 190 237 329 q 397 54 313 58 q 616 200 487 50 q 708 379 672 272 q 753 595 744 486 q 739 805 762 703 q 661 964 716 906 q 585 1023 621 1006 q 500 1038 549 1040 q 349 895 416 1036 q 259 542 282 753 z "},"1":{"ha":586,"x_min":0,"x_max":455,"o":"m 0 798 q 68 832 31 803 q 137 897 105 861 q 196 971 169 934 q 240 1032 224 1008 q 256 1057 256 1056 l 454 1067 q 447 958 455 1047 q 425 706 439 869 q 400 416 410 543 q 372 0 378 127 l 135 0 q 147 152 135 30 q 176 415 159 275 q 225 798 199 616 q 262 1025 250 981 q 241 988 256 1012 q 200 930 226 964 q 145 865 174 896 q 80 809 116 834 q 12 775 44 783 l 0 798 z "},"2":{"ha":1019,"x_min":0,"x_max":843,"o":"m 0 36 q 73 166 17 85 q 178 297 129 248 q 371 521 268 387 q 576 925 577 789 q 416 1040 576 1040 q 256 997 334 1040 q 153 906 199 960 q 102 804 106 851 q 121 734 99 763 q 170 693 142 705 q 221 684 195 680 q 268 704 247 688 q 306 743 288 720 q 332 794 323 767 q 342 847 340 821 q 334 895 345 873 l 353 905 q 363 834 367 874 q 340 761 359 795 q 293 701 321 728 q 230 666 264 673 q 160 673 195 659 q 94 741 112 703 q 84 817 75 779 q 118 892 93 854 q 175 959 143 930 q 240 1011 206 989 q 358 1057 289 1044 q 494 1066 428 1070 q 619 1044 560 1062 q 768 943 728 1012 q 800 827 798 892 q 781 703 801 762 q 726 595 761 644 q 642 498 692 545 q 529 399 592 452 q 433 315 467 347 q 330 228 378 261 q 260 168 281 194 q 355 232 288 210 q 493 250 422 255 q 603 212 564 245 q 626 192 610 206 q 652 170 642 178 q 676 152 661 161 q 705 139 691 143 q 771 138 734 131 q 832 164 808 146 q 843 174 836 167 l 782 52 q 772 41 780 46 q 756 32 764 35 q 738 24 749 28 q 724 18 726 19 q 665 0 692 2 q 539 29 603 -5 q 489 64 523 39 q 435 100 455 89 q 338 121 391 123 q 244 92 286 119 q 200 53 216 74 l 161 -1 l 0 36 z "},"3":{"ha":814,"x_min":38,"x_max":720,"o":"m 46 272 l 74 275 q 82 178 68 222 q 125 105 96 134 q 189 59 154 77 q 265 33 224 41 q 295 31 270 33 q 332 29 319 29 q 440 130 399 29 q 477 359 480 228 q 429 547 473 489 q 335 568 391 597 l 271 515 l 256 541 q 357 626 317 589 q 453 721 397 663 q 543 814 509 780 l 543 815 q 393 865 458 820 q 286 912 346 904 q 170 897 226 920 q 78 823 114 873 q 77 821 77 822 q 74 821 74 818 l 58 1038 q 60 1039 58 1039 q 81 1049 66 1044 q 114 1056 95 1053 q 155 1061 133 1059 q 201 1065 177 1063 q 248 1067 226 1066 q 293 1067 271 1067 q 330 1067 315 1067 q 358 1067 345 1067 q 371 1067 370 1067 q 414 1059 393 1067 q 448 1043 435 1052 q 484 1018 460 1035 q 521 991 508 1000 q 595 952 567 962 q 652 949 623 941 q 685 958 676 961 q 684 930 694 955 q 618 839 661 871 q 600 825 612 835 q 577 807 587 815 q 559 791 568 800 q 533 762 549 781 q 414 636 494 720 q 412 635 412 636 q 463 644 439 644 q 582 603 522 644 q 684 465 649 557 q 704 282 720 374 q 627 130 688 197 q 486 30 566 63 q 326 -3 407 -3 q 287 0 312 -3 q 254 3 262 2 q 171 32 210 12 q 100 83 132 52 q 53 164 68 115 q 46 272 38 213 z "},"4":{"ha":998,"x_min":-1,"x_max":956,"o":"m 2 506 q 58 579 -1 557 l 75 585 q 126 586 96 589 q 168 576 156 583 q 207 740 194 637 q 210 938 219 842 q 167 1067 200 1034 l 367 1067 q 410 925 399 1027 q 407 710 420 822 q 359 532 393 598 q 404 523 381 526 q 453 516 426 519 q 498 511 480 513 q 550 508 515 510 q 600 504 585 505 q 665 828 656 739 l 839 828 q 796 504 804 553 q 954 509 861 504 l 956 490 q 799 486 876 486 l 794 486 l 793 484 q 770 339 783 413 q 749 222 757 265 q 725 101 741 178 q 704 -3 709 24 l 468 -3 q 597 489 522 192 q 349 517 433 496 q 178 384 279 395 q 50 422 107 376 q 2 506 4 460 m 18 518 q 24 494 16 506 q 45 476 33 481 l 46 476 q 92 484 65 468 q 132 521 113 496 q 140 531 134 522 q 153 549 146 541 q 160 558 159 558 q 100 570 120 570 q 81 567 91 569 q 40 551 59 564 q 18 518 21 538 z "},"5":{"ha":791,"x_min":64,"x_max":765,"o":"m 70 231 q 67 249 70 231 q 68 303 64 267 q 93 358 73 340 l 111 339 q 98 226 83 282 q 149 127 113 170 q 228 65 186 83 q 420 121 347 28 q 488 323 480 196 q 454 531 497 444 q 326 620 408 621 q 300 616 313 619 q 161 550 218 596 l 136 550 q 147 718 142 591 q 158 882 153 845 q 209 991 177 952 q 279 1039 240 1030 q 361 1042 317 1048 q 451 1022 404 1037 q 541 996 498 1008 q 627 983 584 983 q 701 1003 670 983 q 717 1013 703 1004 q 738 1027 732 1023 q 753 1043 744 1032 q 765 1067 762 1055 l 764 850 q 684 797 726 814 q 603 777 642 779 q 523 783 564 776 q 446 802 483 790 q 375 825 410 814 q 311 839 340 836 q 257 837 281 843 q 213 804 232 830 q 184 733 195 779 q 177 690 180 714 q 173 636 174 667 q 170 593 171 605 q 297 640 227 632 q 394 641 326 644 q 490 628 462 637 q 617 555 565 603 q 691 448 669 508 q 709 322 713 388 q 670 190 706 256 q 571 69 634 123 q 411 -1 505 12 q 286 8 350 -9 q 168 69 222 26 q 89 170 115 111 q 70 231 77 195 z "},"6":{"ha":857,"x_min":-6,"x_max":750,"o":"m 7 435 q 74 706 19 570 q 216 939 129 841 q 325 1022 262 989 q 456 1064 388 1055 q 710 983 581 1082 q 718 977 713 982 l 699 962 q 564 1023 629 1023 q 478 996 524 1023 q 314 773 386 940 q 227 435 242 607 q 224 366 223 388 q 318 502 254 439 q 454 587 382 564 q 526 599 490 599 q 624 577 576 599 q 703 513 672 555 q 743 353 750 446 q 692 196 736 275 q 590 78 652 125 q 462 13 529 31 q 324 0 395 -5 q 192 33 253 5 q 84 113 132 61 q 16 232 36 164 q 7 435 -6 302 m 227 285 q 231 259 227 275 q 235 240 234 243 q 244 206 239 222 q 258 169 250 189 q 276 131 266 148 q 298 96 286 114 q 326 66 311 78 q 358 45 340 55 q 397 36 376 36 q 441 40 417 35 q 543 163 503 56 q 578 392 582 270 q 527 553 574 513 q 463 564 500 576 q 310 453 380 537 q 227 285 239 369 z "},"7":{"ha":640,"x_min":0,"x_max":696,"o":"m 0 917 q 31 973 18 951 q 70 1021 45 996 q 122 1057 94 1046 q 152 1065 136 1063 q 181 1067 168 1067 q 212 1063 194 1067 q 240 1057 229 1059 q 270 1046 251 1054 q 297 1034 290 1038 q 326 1021 305 1031 q 351 1008 347 1010 q 384 993 359 1005 q 420 977 408 981 q 452 965 431 972 q 490 957 472 958 q 525 957 507 955 q 624 1002 572 962 q 665 1036 650 1023 q 675 1044 667 1038 q 690 1056 684 1050 q 696 1065 696 1062 q 685 916 696 997 q 651 745 673 835 q 588 567 629 655 q 493 415 547 479 q 428 340 453 370 q 372 264 404 310 q 325 180 341 218 q 300 94 309 142 q 297 -3 292 45 l 121 -3 q 121 43 121 14 q 122 74 122 72 q 166 286 122 189 q 296 485 210 383 q 371 564 328 524 q 445 631 414 604 q 505 691 475 658 q 552 768 534 725 q 575 868 570 812 q 494 774 537 800 q 412 757 452 748 q 330 788 372 766 q 248 833 289 810 q 169 864 208 856 q 91 846 130 873 q 17 751 51 820 l 0 917 z "},"8":{"ha":836,"x_min":47,"x_max":700,"o":"m 56 224 q 72 293 58 259 q 104 354 86 328 q 151 411 121 380 q 204 463 180 442 q 263 514 227 483 q 319 564 299 545 q 308 583 316 570 q 293 607 300 597 q 277 635 287 618 q 260 666 268 652 q 244 700 253 681 q 230 735 236 718 q 218 771 224 751 q 210 808 213 791 q 208 845 208 826 q 211 880 208 863 q 258 974 223 933 q 337 1035 292 1014 q 434 1064 382 1057 q 533 1062 486 1071 q 617 1027 579 1053 q 672 962 655 1002 q 688 908 684 933 q 684 861 692 884 q 667 820 677 838 q 634 780 656 802 q 594 742 612 758 q 545 701 576 727 q 493 656 513 674 q 614 520 562 595 q 681 385 666 445 q 680 238 700 308 q 608 115 660 168 q 468 30 556 62 q 271 -1 380 -1 q 169 22 218 -1 q 93 85 121 45 q 56 224 47 147 m 82 221 q 117 103 80 153 q 195 44 147 62 q 301 32 243 26 q 428 78 377 41 q 496 165 478 115 q 504 274 513 215 q 456 389 494 334 q 406 452 445 404 q 339 542 367 500 q 312 523 329 535 q 251 473 295 511 q 174 399 208 436 q 112 313 140 363 q 82 221 83 264 m 383 882 q 476 676 356 810 q 590 771 567 749 q 657 899 661 840 q 646 943 656 921 q 606 987 633 972 q 546 999 578 1001 q 481 984 513 997 q 422 943 449 970 q 383 882 395 916 z "},"9":{"ha":802,"x_min":-5,"x_max":740,"o":"m 1 710 q 52 867 9 786 q 154 988 92 940 q 283 1054 216 1036 q 420 1066 349 1072 q 550 1031 490 1060 q 657 950 610 1002 q 725 831 705 899 q 739 731 738 788 q 734 629 740 675 q 678 398 725 519 q 564 182 631 277 q 429 50 496 88 q 338 12 382 24 q 242 -1 293 -1 q 137 22 191 -1 q 26 89 82 44 l 46 104 q 179 41 114 41 q 265 69 222 41 q 382 198 327 106 q 471 404 437 290 q 515 629 506 518 q 518 697 519 675 q 424 562 488 624 q 289 476 360 500 q 216 467 260 467 q 118 488 165 467 q 41 551 71 509 q 1 710 -5 617 m 171 681 q 215 514 171 557 q 281 500 241 487 q 432 610 362 526 q 515 778 503 694 q 511 803 515 788 q 507 822 508 819 q 500 856 505 832 q 494 882 496 873 q 488 907 492 890 q 479 934 484 924 q 469 958 475 943 q 455 981 463 972 q 438 1000 448 989 q 416 1015 428 1010 q 389 1023 404 1019 q 356 1027 374 1027 q 317 1023 338 1027 q 213 908 255 1013 q 171 681 172 805 z "}," ":{"ha":411,"x_min":0,"x_max":0,"o":""},"!":{"ha":739,"x_min":142,"x_max":545,"o":"m 142 57 q 158 97 142 81 q 197 113 174 113 q 237 97 220 113 q 254 57 254 81 q 237 18 254 35 q 197 1 220 1 q 158 18 174 1 q 142 57 142 34 m 232 225 q 271 526 239 352 q 339 810 302 700 q 358 866 342 821 q 380 929 374 911 q 400 980 387 947 q 428 1039 414 1013 q 472 1071 442 1067 q 523 1055 501 1075 q 539 1003 545 1035 q 484 799 526 919 q 455 710 477 779 q 417 593 434 642 q 372 475 399 544 q 309 343 345 407 q 232 225 274 280 z "},"\"":{"ha":455,"x_min":0,"x_max":304,"o":"m 0 869 q 55 901 24 876 q 110 958 87 927 q 106 958 109 958 q 103 957 104 957 q 64 973 80 957 q 46 1013 47 989 l 46 1014 q 62 1054 46 1038 q 103 1069 79 1069 q 141 1054 125 1069 q 158 1014 158 1038 l 158 1010 l 158 1007 q 156 1001 157 1005 q 154 994 155 996 q 153 990 154 991 q 88 901 136 946 q 5 850 40 856 l 0 869 m 146 798 q 200 828 169 802 q 256 885 232 854 l 249 885 q 210 901 226 885 q 192 940 193 917 q 208 981 192 966 q 249 997 224 997 q 288 981 271 997 q 304 940 304 965 l 304 937 l 304 935 q 302 928 304 932 q 300 922 300 924 q 298 918 300 920 q 234 828 282 874 q 151 777 185 783 l 146 798 z "},"#":{"ha":977,"x_min":106,"x_max":964,"o":"m 123 317 q 112 381 106 348 q 140 441 117 414 q 181 474 155 459 q 224 496 206 490 q 275 514 243 503 q 338 529 319 526 l 386 538 q 406 652 388 568 q 436 765 425 736 l 456 765 q 435 545 448 667 q 488 552 455 548 q 544 561 521 557 q 590 574 567 566 q 625 587 613 581 q 631 637 626 612 q 645 690 635 663 q 675 738 655 718 q 722 762 695 758 q 800 745 775 772 q 815 673 825 718 q 769 616 803 637 q 675 578 734 594 q 682 433 675 500 q 688 306 688 376 q 686 262 688 275 q 864 339 803 283 q 892 372 879 352 q 904 414 906 393 q 888 446 899 436 q 833 458 868 465 q 803 446 819 456 q 779 421 788 435 l 761 432 q 768 444 759 433 q 792 466 777 454 q 819 482 807 477 q 887 486 848 495 q 946 449 926 476 q 958 384 964 418 q 929 323 952 351 q 794 253 895 281 q 732 236 756 241 q 706 232 728 236 q 684 228 684 229 q 662 112 680 195 q 633 1 644 28 l 612 0 q 633 222 626 114 q 581 214 616 219 q 524 205 547 210 q 479 192 502 200 q 444 178 455 184 q 438 129 443 153 q 423 76 433 104 q 393 28 413 48 q 346 3 373 8 q 270 20 294 -7 q 254 92 245 47 q 301 149 267 127 q 395 187 335 171 q 387 332 395 264 q 382 460 382 389 q 383 503 382 490 q 205 428 263 481 q 177 394 191 416 q 165 351 163 372 q 182 319 168 332 q 236 307 201 300 q 267 321 252 310 q 290 345 282 332 l 307 335 q 301 322 310 333 q 277 300 292 312 q 249 283 262 288 q 182 280 220 271 q 123 317 144 290 m 293 64 q 315 29 288 37 q 355 37 341 21 q 385 84 377 56 q 393 157 392 113 q 369 142 388 153 q 341 125 350 131 q 320 108 333 119 q 301 87 307 98 q 293 64 294 76 m 432 465 q 439 336 432 406 q 444 201 444 241 q 507 227 474 216 q 636 261 565 250 q 637 300 637 273 q 631 431 637 359 q 625 564 625 526 q 562 539 594 549 q 433 504 492 513 q 432 465 432 492 m 676 608 q 701 623 682 612 q 728 640 720 634 q 749 657 736 646 q 769 678 762 667 q 777 701 775 689 q 768 729 780 720 q 739 739 755 739 q 714 728 723 738 q 685 681 692 709 q 676 608 677 652 z "},"$":{"ha":728,"x_min":163,"x_max":568,"o":"m 178 250 q 163 334 163 288 q 182 416 164 379 q 269 510 210 479 l 281 479 q 210 406 231 459 q 195 327 195 363 q 205 264 195 292 q 262 190 224 217 q 342 165 300 163 q 377 193 359 165 q 406 263 395 220 q 420 354 417 306 q 408 450 422 402 q 363 528 393 498 q 332 552 355 535 q 300 579 310 568 q 214 694 239 634 q 206 785 198 734 q 241 875 214 836 q 317 921 263 904 q 412 935 372 939 l 427 1063 l 454 1057 l 443 930 q 506 882 481 918 q 538 806 531 847 q 527 702 546 750 q 457 632 507 653 l 446 660 q 500 716 485 677 q 509 799 515 755 q 494 851 505 826 q 461 893 483 876 q 411 907 439 911 q 348 837 372 901 q 328 699 323 772 q 364 602 332 627 q 429 546 386 587 q 538 427 511 492 q 555 298 568 363 q 492 180 542 232 q 427 141 467 155 q 343 131 387 127 l 332 5 l 301 5 l 314 135 q 232 176 268 145 q 178 250 197 206 z "},"%":{"ha":1140,"x_min":158,"x_max":1078,"o":"m 178 634 q 168 660 178 634 q 165 743 158 686 q 199 858 172 800 q 267 963 226 917 q 362 1038 308 1008 q 473 1067 417 1067 q 526 1034 501 1067 q 607 985 540 1010 q 737 960 675 960 q 865 994 787 960 q 981 1067 943 1029 l 1078 1067 q 1019 995 1069 1056 q 910 862 968 934 q 811 737 852 790 q 545 380 732 638 q 258 0 359 121 l 203 0 q 296 175 243 86 q 425 368 349 264 q 547 532 501 473 q 688 711 593 592 q 726 760 713 743 q 804 851 766 809 q 863 916 842 893 q 892 950 884 939 q 729 905 848 908 q 709 906 719 905 q 687 910 699 907 q 667 916 675 913 q 645 924 658 919 q 624 932 631 930 q 602 943 616 935 q 582 953 587 950 q 560 964 576 956 q 541 974 545 972 l 541 932 q 479 710 533 831 q 393 577 437 616 q 290 538 349 538 q 245 549 259 538 q 178 634 198 581 m 269 577 q 290 571 277 571 q 321 576 307 571 q 357 595 336 581 q 400 643 378 610 q 444 726 422 676 q 507 971 507 869 q 499 1009 507 990 q 473 1028 492 1028 q 370 933 433 1028 q 269 722 303 833 q 269 577 231 603 m 624 85 q 653 279 602 164 q 787 459 703 388 q 946 526 867 526 q 985 515 974 526 q 1014 436 1014 486 q 951 172 1014 306 q 760 -3 873 -3 q 624 85 648 -3 m 744 170 q 746 37 716 59 q 760 33 751 33 q 921 192 846 33 q 979 436 979 324 q 972 473 979 453 q 949 493 965 493 q 833 387 897 493 q 744 170 773 286 z "},"&":{"ha":726,"x_min":-1,"x_max":622,"o":"m 1 205 q 51 352 -1 285 q 178 449 103 419 q 168 457 176 449 q 163 462 167 458 q 158 467 159 465 q 142 486 155 469 q 118 525 127 504 q 106 607 102 565 q 135 682 112 649 q 195 739 159 719 q 278 766 231 762 q 412 737 349 772 q 420 733 414 736 q 427 730 426 730 q 481 757 454 755 l 485 746 q 459 736 475 744 q 435 721 444 728 q 472 646 472 694 q 447 586 471 604 q 399 583 423 569 q 374 629 376 596 q 407 714 372 670 q 235 691 307 754 q 172 577 185 647 q 191 476 161 511 q 208 463 199 468 q 263 473 231 469 q 329 475 296 477 q 381 458 361 473 q 393 416 401 444 q 349 381 384 386 q 273 391 313 376 q 201 432 232 406 q 149 391 174 422 q 106 320 123 361 q 87 233 90 280 q 99 145 85 186 q 154 70 113 103 q 260 24 195 37 q 369 37 311 14 q 467 106 427 60 q 507 205 507 153 q 497 262 507 233 q 469 313 486 292 q 346 189 346 256 l 319 189 q 337 239 319 217 q 392 286 354 262 q 468 330 406 296 q 559 390 529 365 q 583 415 574 401 q 594 445 591 428 q 586 475 597 461 l 608 488 q 618 444 622 466 q 603 404 614 422 q 571 369 591 385 q 529 340 550 352 q 485 318 508 328 q 524 201 529 258 q 482 100 519 144 q 388 28 446 56 q 268 -1 330 1 q 142 21 201 -1 q 42 93 83 44 q 1 205 2 141 m 220 449 q 266 416 233 432 q 332 400 299 400 q 378 425 372 400 q 360 452 380 444 q 310 459 340 460 q 257 455 279 458 q 220 449 235 452 m 389 639 q 405 595 389 606 q 436 596 420 583 q 452 636 452 609 q 418 710 452 686 q 390 650 393 667 q 389 639 389 644 z "},"'":{"ha":330,"x_min":0,"x_max":158,"o":"m 0 869 q 55 901 24 876 q 110 958 87 927 q 106 958 109 958 q 103 957 104 957 q 64 973 80 957 q 46 1013 47 989 l 46 1014 q 62 1054 46 1038 q 103 1069 79 1069 q 141 1054 125 1069 q 158 1014 158 1038 l 158 1010 l 158 1007 q 156 1001 157 1005 q 154 994 155 996 q 153 990 154 991 q 88 901 136 946 q 5 850 40 856 l 0 869 z "},"(":{"ha":890,"x_min":315,"x_max":823,"o":"m 346 124 q 331 180 346 124 q 315 350 315 235 q 346 575 315 465 q 428 774 376 686 q 545 928 479 861 q 682 1032 610 996 q 823 1068 755 1068 l 823 1046 q 640 951 718 1046 q 524 701 562 857 q 486 350 486 545 q 524 1 486 156 q 640 -249 562 -154 q 823 -343 718 -343 l 823 -368 q 682 -332 755 -368 q 545 -229 610 -296 q 428 -74 479 -161 q 346 124 376 14 z "},")":{"ha":989,"x_min":175,"x_max":684,"o":"m 175 -343 q 320 -289 255 -343 q 427 -140 385 -235 q 490 80 468 -45 q 513 350 513 205 q 475 701 513 545 q 359 951 437 857 q 175 1046 281 1046 l 175 1068 q 317 1032 244 1068 q 454 928 389 996 q 571 774 519 861 q 653 575 623 686 q 684 350 684 465 q 653 124 684 235 q 571 -74 623 14 q 454 -229 519 -161 q 317 -332 389 -296 q 175 -368 244 -368 l 175 -343 z "},"*":{"ha":772,"x_min":125,"x_max":625,"o":"m 125 798 l 125 829 l 338 829 l 187 979 l 210 1002 l 359 850 l 359 1064 l 390 1064 l 390 850 l 541 1002 l 562 979 l 412 829 l 625 829 l 625 798 l 412 798 l 562 647 l 541 625 l 390 777 l 390 564 l 359 564 l 359 777 l 210 625 l 187 647 l 338 798 l 125 798 z "},"+":{"ha":1074,"x_min":323,"x_max":823,"o":"m 323 416 l 323 447 l 558 447 l 558 682 l 589 682 l 589 447 l 823 447 l 823 416 l 589 416 l 589 182 l 558 182 l 558 416 l 323 416 z "},",":{"ha":467,"x_min":0,"x_max":158,"o":"m 0 -86 q 55 -56 23 -81 q 110 1 86 -30 l 103 1 q 63 17 80 1 q 46 56 47 33 l 46 57 q 62 97 46 81 q 103 113 79 113 q 141 97 125 113 q 158 57 158 81 l 158 53 l 158 50 q 156 44 157 48 q 154 37 155 39 q 153 33 154 35 q 88 -56 136 -11 q 5 -107 40 -101 l 0 -86 z "},"-":{"ha":1301,"x_min":465,"x_max":965,"o":"m 465 353 l 465 383 l 965 383 l 965 353 l 465 353 z "},".":{"ha":543,"x_min":43,"x_max":155,"o":"m 43 57 q 59 97 43 81 q 98 113 75 113 q 138 97 121 113 q 155 57 155 81 q 138 18 155 35 q 98 1 121 1 q 59 18 75 1 q 43 57 43 34 z "},"/":{"ha":639,"x_min":283,"x_max":545,"o":"m 283 14 l 521 1075 l 545 1053 l 311 -1 l 283 14 z "},":":{"ha":408,"x_min":0,"x_max":113,"o":"m 0 57 q 16 97 0 81 q 56 113 33 113 q 96 97 79 113 q 113 57 113 81 q 95 18 113 35 q 56 1 78 1 q 16 18 33 1 q 0 57 0 34 m 0 446 q 16 486 0 470 q 56 501 33 501 q 96 486 79 501 q 113 446 113 470 q 95 407 113 423 q 56 390 78 390 q 16 406 33 390 q 0 446 0 422 z "},";":{"ha":390,"x_min":0,"x_max":158,"o":"m 0 -86 q 55 -56 23 -81 q 110 1 86 -30 l 103 1 q 63 17 80 1 q 46 56 47 33 l 46 57 q 62 97 46 81 q 103 113 79 113 q 141 97 125 113 q 158 57 158 81 l 158 53 l 158 50 q 156 44 157 48 q 154 37 155 39 q 153 33 154 35 q 88 -56 136 -11 q 5 -107 40 -101 l 0 -86 m 45 446 q 61 486 45 470 q 100 501 77 501 q 140 486 123 501 q 157 446 157 470 q 139 407 157 423 q 100 390 122 390 q 61 406 77 390 q 45 446 45 422 z "},"=":{"ha":1074,"x_min":346,"x_max":846,"o":"m 346 357 l 346 387 l 846 387 l 846 357 l 346 357 m 346 595 l 346 625 l 846 625 l 846 595 l 346 595 z "},"?":{"ha":922,"x_min":216,"x_max":859,"o":"m 218 779 q 248 919 216 857 q 332 1014 280 980 q 449 1062 384 1048 q 578 1064 515 1075 q 697 1017 641 1053 q 786 922 754 980 q 663 599 859 768 q 582 533 623 564 q 518 486 541 502 q 470 447 496 470 q 426 398 444 424 q 385 331 408 373 q 336 228 362 290 q 347 393 330 323 q 399 508 365 462 q 497 608 433 554 q 615 772 569 671 q 645 962 667 885 q 493 1046 619 1054 q 444 1040 470 1045 q 402 1028 424 1036 q 351 999 380 1019 q 298 952 321 979 q 256 879 275 924 q 233 778 238 833 l 218 779 m 264 57 q 280 97 264 81 q 321 113 297 113 q 359 97 342 113 q 376 57 376 81 q 359 18 376 35 q 321 1 342 1 q 281 18 298 1 q 264 57 264 34 z "},"@":{"ha":1356,"x_min":-9,"x_max":1405,"o":"m 4 33 q 19 296 -9 166 q 108 537 47 426 q 258 744 168 648 q 454 909 347 840 q 687 1020 562 978 q 942 1068 813 1061 q 1092 1048 1019 1072 q 1223 980 1165 1024 q 1323 873 1281 937 q 1385 736 1365 809 q 1398 579 1405 664 q 1353 410 1390 494 q 1262 247 1314 319 q 1163 134 1211 175 q 1071 68 1116 94 q 994 37 1025 43 q 947 37 963 31 q 892 279 872 72 q 729 41 816 107 q 642 1 681 1 q 448 113 494 1 q 454 353 408 208 q 593 597 497 491 q 821 730 701 715 q 989 689 909 741 q 1023 651 1009 675 q 1045 603 1038 627 q 1056 543 1052 579 q 1061 483 1060 507 q 1061 422 1061 459 l 1061 395 l 1036 395 l 1036 422 q 1034 517 1036 477 q 1016 605 1031 557 q 975 668 1002 652 q 921 680 956 682 q 848 660 886 677 q 795 604 828 650 q 729 494 763 558 q 665 356 695 431 q 617 216 635 281 q 600 99 599 150 q 627 33 601 48 q 666 33 644 26 q 708 57 688 41 q 836 223 780 113 q 918 449 892 334 q 921 472 918 456 q 925 494 924 488 l 949 486 q 940 169 936 266 q 966 61 943 71 q 982 59 972 60 q 1007 64 991 58 q 1041 77 1023 70 q 1082 100 1059 84 q 1128 135 1105 116 q 1178 183 1152 153 q 1230 247 1204 212 q 1282 328 1255 281 q 1333 428 1309 374 q 1375 581 1368 503 q 1363 729 1381 660 q 1306 858 1345 798 q 1212 961 1266 919 q 1087 1025 1158 1003 q 942 1042 1017 1047 q 737 989 836 1035 q 558 869 638 944 q 415 702 478 795 q 306 500 351 608 q 236 267 258 387 q 218 37 213 147 q 260 -131 225 -58 q 350 -245 296 -203 q 475 -310 405 -287 q 624 -332 546 -332 q 782 -317 701 -332 q 939 -271 863 -301 q 1081 -199 1014 -241 q 1196 -109 1147 -157 l 1215 -131 q 1119 -206 1176 -170 q 993 -271 1061 -242 q 847 -320 925 -299 q 690 -351 770 -340 q 530 -360 610 -362 q 377 -346 450 -359 q 239 -302 304 -332 q 125 -227 174 -271 q 44 -116 76 -182 q 4 33 12 -50 z "},"A":{"ha":1356,"x_min":-284,"x_max":1464,"o":"m -282 -252 q -206 -143 -273 -195 q -75 -77 -139 -91 q 52 -61 -18 -62 q 68 -61 60 -61 q 195 -72 130 -61 q 328 -111 270 -84 q 329 -112 328 -111 q 330 -113 330 -113 q 341 -118 334 -115 q 353 -123 348 -121 q 363 -129 359 -126 q 424 -23 395 -79 q 481 98 453 33 q 525 203 509 163 q 569 317 541 243 q 603 408 596 391 l 653 538 q 559 589 604 569 q 464 623 515 610 q 393 631 429 631 q 361 629 376 631 q 260 599 309 624 q 136 482 180 558 q 113 406 113 440 q 114 390 113 397 q 252 440 174 440 q 264 440 258 440 q 315 416 304 437 q 319 401 319 408 q 307 371 319 386 q 265 347 292 354 q 202 336 235 336 q 183 337 193 336 q 109 366 140 341 q 43 272 69 326 l 25 272 q 92 370 53 331 l 97 378 l 97 385 q 96 404 96 394 q 115 476 96 441 q 224 599 153 554 q 336 646 270 631 q 404 652 372 652 q 489 639 444 650 q 660 554 553 620 q 685 610 658 556 q 764 737 720 680 q 864 844 809 798 q 982 929 911 886 q 1121 996 1038 962 q 1291 1046 1221 1034 q 1362 1050 1316 1050 q 1330 882 1354 1024 q 1275 551 1307 739 q 1219 257 1243 363 q 1292 237 1259 240 q 1307 236 1299 236 q 1354 244 1331 236 q 1409 277 1383 255 q 1464 336 1434 299 l 1464 307 q 1345 225 1404 241 q 1300 219 1323 219 q 1215 237 1259 219 q 1193 146 1207 196 q 1169 62 1179 96 q 1152 -5 1159 29 q 1146 -50 1146 -30 q 1147 -64 1146 -57 q 1162 -106 1149 -89 q 1179 -119 1168 -115 q 1196 -125 1189 -124 q 1217 -129 1202 -127 l 1211 -147 q 1140 -120 1171 -141 q 1093 -72 1110 -100 q 1064 -5 1075 -43 q 1051 69 1054 33 q 1050 113 1050 90 q 1050 149 1050 130 q 1057 223 1053 191 q 1067 289 1061 255 q 778 456 932 354 l 742 358 q 694 234 710 275 q 646 121 677 193 q 588 3 614 48 q 526 -97 563 -43 q 450 -193 490 -151 q 600 -338 532 -258 l 586 -349 q 439 -204 519 -267 q 399 -241 422 -223 q 213 -363 329 -305 q -14 -433 96 -420 q -53 -435 -34 -435 q -231 -379 -162 -435 q -278 -316 -269 -347 q -284 -276 -283 -296 q -282 -252 -284 -264 m -265 -257 q -267 -275 -267 -267 q -216 -366 -267 -326 q -52 -416 -150 -415 q -16 -414 -35 -416 q 353 -146 188 -393 q 216 -95 296 -112 q 68 -79 140 -79 q 62 -79 65 -79 q -72 -94 -12 -79 q -194 -157 -134 -109 q -265 -257 -254 -205 m 121 376 q 150 359 133 362 q 201 352 178 352 q 227 354 214 352 q 302 396 298 364 q 297 415 304 408 q 260 426 286 426 q 204 418 237 426 q 121 376 157 407 m 785 473 q 957 367 898 401 q 1071 309 1016 333 q 1155 618 1111 475 q 1228 837 1199 762 q 1300 1017 1257 913 q 1145 959 1215 996 q 1025 876 1075 922 q 929 763 975 830 q 853 630 884 695 q 785 473 821 565 z "},"B":{"ha":1042,"x_min":-98,"x_max":1039,"o":"m -98 -139 l -93 -122 q -45 -130 -68 -130 q 1 -122 -22 -130 q 85 -60 47 -106 q 155 38 123 -15 q 216 167 186 91 q 266 300 246 243 q 310 431 286 358 q 312 437 311 435 q 314 443 313 439 q 315 449 315 446 q 345 545 325 479 q 378 652 365 612 q 413 748 392 693 q 457 848 433 803 q 510 929 481 892 q 586 998 540 968 q 659 1035 632 1028 q 530 1023 601 1035 q 361 972 439 1009 q 224 869 283 935 q 149 718 165 803 q 140 640 140 677 q 151 559 140 597 q 218 440 172 488 q 217 422 218 435 q 216 404 216 410 q 125 548 148 456 q 112 652 111 601 q 119 728 112 690 q 178 856 134 797 q 289 957 222 916 q 541 1043 395 1027 q 608 1050 586 1048 q 694 1053 661 1053 q 736 1053 709 1052 q 778 1053 764 1053 q 856 1048 817 1053 q 986 990 937 1040 q 1034 910 1023 955 q 1039 866 1039 888 q 1034 823 1039 844 q 1005 748 1023 781 q 968 692 988 715 q 930 660 954 675 q 867 624 907 644 q 821 600 827 604 q 913 532 876 574 q 964 440 949 489 q 975 367 975 405 q 974 336 975 352 q 943 228 968 280 q 870 125 918 175 q 760 37 823 75 q 677 5 724 16 q 614 -2 646 -2 l 585 0 q 511 28 539 5 q 450 152 450 79 q 458 208 450 178 q 517 317 475 269 q 612 382 559 366 l 619 366 q 530 305 570 350 q 475 204 491 260 q 467 151 468 176 q 518 46 467 85 q 604 14 559 14 q 690 44 646 14 q 817 207 766 95 q 864 411 864 312 q 863 444 864 428 q 799 591 854 538 q 734 567 771 577 q 661 552 697 556 q 643 551 651 551 q 600 560 618 551 q 575 600 575 572 q 603 646 575 633 q 642 654 620 653 q 669 651 655 654 q 742 633 708 644 q 798 611 775 623 q 853 673 823 623 q 901 786 883 724 q 922 906 920 847 q 922 915 922 911 q 896 993 922 967 q 810 1029 860 1029 q 770 1023 792 1029 q 637 928 694 1004 q 565 776 594 863 q 511 584 536 689 q 469 431 486 478 q 416 303 450 372 q 337 164 382 234 q 238 33 292 95 q 127 -74 183 -29 q 12 -137 72 -118 q -49 -146 -20 -147 q -98 -139 -75 -146 m 590 603 q 609 575 589 583 q 642 569 623 570 q 660 571 650 570 q 721 583 690 575 q 778 600 751 590 q 724 620 753 611 q 664 633 695 628 q 640 635 651 635 q 612 631 624 635 q 590 603 591 624 z "},"C":{"ha":811,"x_min":0,"x_max":896,"o":"m 5 319 q 0 395 0 357 q 22 558 0 473 q 126 800 54 685 q 189 883 153 843 q 270 958 225 922 q 366 1016 315 993 q 471 1048 416 1039 q 519 1053 495 1053 q 582 1046 551 1053 q 723 970 667 1029 q 779 832 779 911 q 884 882 808 850 l 896 869 q 779 811 805 828 q 765 747 777 779 q 732 687 753 711 q 703 671 718 671 q 689 675 696 671 q 671 703 671 683 q 682 741 671 722 q 707 774 692 759 q 761 819 728 799 q 709 950 762 895 q 571 1022 656 1006 q 536 1026 553 1026 q 357 928 446 1026 q 205 644 261 820 q 160 381 160 503 q 165 302 160 341 q 295 81 186 136 q 372 60 330 64 q 421 58 398 58 q 486 61 456 58 q 584 83 534 66 q 680 132 633 99 q 775 214 726 164 q 885 336 825 263 l 885 307 q 753 162 811 218 q 634 68 696 106 q 509 14 572 28 q 378 0 450 -1 q 366 0 372 0 q 124 87 221 1 q 5 319 26 174 m 692 722 q 689 717 692 722 q 688 703 686 711 q 697 690 689 694 q 725 707 709 685 q 750 754 740 729 q 760 798 757 771 q 717 760 736 782 q 703 742 709 751 q 692 722 697 732 z "},"D":{"ha":1244,"x_min":0,"x_max":1176,"o":"m 0 -139 l 5 -122 q 50 -130 28 -130 q 108 -117 79 -130 q 195 -49 157 -94 q 270 70 232 -5 q 331 208 307 144 q 383 355 355 271 l 383 357 q 373 357 378 357 q 292 368 330 357 q 222 401 251 380 q 171 453 193 422 q 137 517 149 483 q 119 587 125 551 q 114 649 115 618 q 114 660 114 654 q 122 728 115 695 q 181 856 137 797 q 292 957 224 916 q 403 1011 343 990 q 597 1050 484 1040 q 704 1054 651 1054 q 739 1053 715 1053 q 775 1051 763 1052 q 790 1049 780 1050 q 806 1047 801 1048 q 939 1000 880 1032 q 1047 914 1003 964 q 1125 798 1094 864 q 1168 656 1155 732 q 1176 559 1176 606 q 1173 500 1176 529 q 1068 220 1157 351 q 840 33 980 90 q 731 3 787 12 q 677 0 706 0 q 606 5 643 0 q 475 47 538 15 l 489 60 q 624 23 560 23 q 652 24 639 23 q 792 80 728 34 q 903 198 855 127 q 980 348 950 270 q 1019 501 1010 427 q 1031 671 1031 595 q 1017 814 1031 747 q 973 927 1003 881 q 890 1001 943 972 q 766 1035 838 1029 q 724 939 745 994 q 695 856 703 884 q 667 755 687 828 q 570 431 608 555 q 559 403 566 421 q 550 379 552 385 q 700 429 627 393 l 701 414 q 545 366 618 376 l 545 364 q 469 215 514 292 q 366 67 423 139 q 248 -56 308 -4 q 122 -133 187 -109 q 50 -146 84 -146 q 0 -139 24 -146 m 153 720 q 142 629 143 671 q 190 471 142 536 q 389 374 259 376 l 390 374 q 414 449 408 433 q 445 550 418 464 q 488 682 471 635 q 498 715 491 695 q 633 956 570 895 q 718 1026 677 997 q 736 1038 732 1038 q 713 1037 738 1038 q 663 1036 688 1036 q 636 1035 637 1035 q 542 1028 582 1035 q 411 993 474 1018 q 295 930 349 968 q 203 838 241 892 q 153 720 165 783 z "},"E":{"ha":665,"x_min":1,"x_max":742,"o":"m 1 272 q 65 469 2 383 q 236 596 129 555 q 194 618 208 610 q 163 639 181 625 q 132 669 146 652 q 103 767 103 711 q 103 784 103 774 q 147 911 109 850 q 237 1003 182 967 q 349 1047 292 1039 q 395 1050 372 1050 q 460 1044 429 1050 q 555 995 514 1032 q 612 901 596 957 q 720 951 673 935 l 732 939 q 615 882 637 895 q 617 861 617 871 q 610 815 617 840 q 574 758 598 781 q 541 743 557 742 q 526 746 533 743 q 508 774 508 755 q 519 811 509 794 q 543 846 529 829 q 596 890 564 868 q 555 971 581 945 q 439 1027 502 1027 q 389 1018 415 1027 q 266 916 317 994 q 214 752 213 837 q 214 736 214 744 q 264 608 218 662 q 323 631 293 623 q 383 640 353 639 q 388 641 385 640 q 433 629 415 641 q 457 591 454 616 q 457 585 457 588 q 435 555 457 564 q 404 551 422 551 q 359 555 385 551 q 257 587 309 564 q 173 473 206 555 q 138 281 140 391 q 138 267 138 274 q 164 143 138 197 q 239 54 193 83 q 342 25 284 25 q 344 26 343 26 q 458 60 403 26 q 593 166 524 99 q 742 336 661 234 l 742 307 q 471 45 590 121 q 307 -1 393 -1 q 171 25 241 -1 q 42 125 84 58 q 1 267 1 189 q 1 272 1 269 m 281 597 q 369 572 327 579 q 406 569 391 569 q 429 572 420 569 q 440 592 443 578 q 424 614 437 607 q 385 623 409 623 q 281 597 345 623 m 536 806 q 532 800 536 806 q 525 780 528 793 q 534 762 522 766 q 566 777 547 756 q 593 821 585 797 q 600 863 600 849 q 599 871 600 867 q 554 831 569 850 q 536 806 544 820 z "},"F":{"ha":900,"x_min":1,"x_max":1077,"o":"m 13 687 q 7 703 13 687 q 1 755 1 720 q 8 823 1 790 q 249 1048 62 1034 q 285 1050 266 1050 q 390 1042 333 1050 q 561 1013 469 1031 q 703 990 653 996 l 753 985 q 864 1027 793 1008 q 975 1050 935 1046 q 998 1050 987 1050 q 1072 1026 1056 1050 q 1077 1012 1077 1019 q 1060 985 1077 998 q 1006 962 1040 969 q 900 953 954 953 q 860 954 880 953 q 811 908 829 933 q 770 838 793 882 q 714 697 745 782 q 671 545 693 640 q 644 452 644 463 q 644 450 644 451 q 731 418 684 425 q 759 416 745 416 q 822 427 791 416 q 847 492 833 469 q 890 544 865 524 q 913 554 902 554 q 933 545 924 554 q 943 513 947 532 q 925 478 939 495 q 893 447 912 461 q 838 412 867 428 q 823 283 826 362 l 806 292 q 818 406 807 335 q 754 395 786 395 q 726 397 741 395 q 637 429 680 404 q 584 301 618 370 q 505 163 550 233 q 405 32 460 94 q 295 -73 351 -29 q 180 -137 240 -118 q 119 -146 149 -147 q 69 -139 93 -146 l 75 -122 q 124 -130 100 -130 q 171 -122 148 -130 q 256 -58 217 -106 q 325 40 295 -9 q 388 173 355 90 q 437 306 420 256 q 480 438 454 355 q 484 449 482 446 q 501 503 494 483 q 435 568 465 528 q 408 650 408 605 q 408 668 408 659 q 410 677 408 675 q 376 713 387 695 q 362 766 362 737 q 362 770 362 769 q 380 825 363 802 l 395 817 q 379 766 379 795 q 392 721 379 741 q 415 694 399 708 q 440 724 423 711 q 474 735 456 736 q 505 728 489 735 q 533 696 528 716 q 526 668 537 681 q 493 648 513 651 q 458 650 473 646 q 432 663 444 655 q 425 667 427 665 l 424 667 q 424 657 423 662 q 447 578 424 619 q 505 519 473 544 l 510 529 q 558 682 549 653 q 623 833 586 769 q 734 968 675 928 l 685 974 q 550 997 637 979 q 387 1025 463 1015 q 288 1032 334 1032 q 252 1031 269 1032 q 24 817 73 1017 q 17 767 17 792 q 24 714 17 741 q 76 621 38 659 q 162 585 113 584 q 165 585 164 585 l 165 567 q 97 584 128 568 q 45 627 65 600 q 13 687 26 653 m 429 685 q 435 681 431 684 q 440 676 438 677 q 446 673 442 675 q 459 668 449 671 q 477 663 469 664 q 497 665 486 662 q 514 677 507 669 q 517 693 518 686 q 498 714 514 705 q 477 719 487 719 q 450 710 463 719 q 429 685 435 699 m 843 435 q 884 460 868 447 q 918 497 903 475 q 922 529 932 520 q 895 527 911 541 q 865 490 879 513 q 843 435 860 481 m 878 978 q 928 976 905 977 q 1018 985 981 976 q 1053 1007 1053 994 q 1023 1025 1053 1021 q 1009 1025 1017 1025 q 971 1019 991 1025 q 878 978 927 1004 z "},"G":{"ha":840,"x_min":0,"x_max":821,"o":"m 4 483 q 44 651 14 568 q 122 803 75 734 q 209 905 161 859 q 315 988 257 952 q 438 1039 372 1025 q 507 1047 473 1047 q 568 1040 538 1047 q 736 935 682 1017 q 771 823 771 882 q 758 749 771 787 q 725 690 746 711 q 703 675 711 676 q 688 675 699 673 q 676 676 677 677 q 736 747 717 701 q 750 814 750 781 q 747 843 750 829 q 711 928 741 888 q 640 994 682 968 q 541 1027 591 1027 q 505 1023 524 1027 q 424 974 465 1013 q 275 783 348 905 q 119 311 125 530 q 119 290 119 300 q 180 94 119 162 q 269 35 216 54 q 358 20 312 20 q 379 21 369 20 q 576 107 479 28 q 621 153 606 129 q 643 208 632 172 q 710 435 654 246 q 810 429 777 432 q 761 164 796 302 q 729 54 742 92 q 664 -123 701 -37 q 626 -208 656 -142 q 590 -278 595 -274 q 651 -320 625 -290 q 694 -391 677 -351 q 727 -472 711 -431 q 767 -553 743 -513 q 821 -615 791 -593 l 807 -625 q 755 -563 779 -603 q 716 -483 732 -524 q 683 -402 700 -442 q 641 -333 666 -363 q 583 -293 616 -303 q 466 -368 524 -337 q 366 -413 409 -399 q 281 -435 322 -427 q 219 -441 245 -441 q 210 -441 215 -441 q 154 -440 182 -440 q 104 -425 132 -439 q 54 -386 77 -412 q 28 -324 31 -361 q 28 -320 28 -322 q 56 -241 28 -285 q 202 -189 90 -189 q 471 -232 304 -189 q 494 -192 484 -211 q 513 -160 505 -174 q 530 -127 522 -146 q 543 -100 538 -109 q 555 -70 547 -91 q 566 -42 563 -50 q 577 -8 569 -35 q 588 26 586 18 q 602 70 591 35 q 616 118 612 105 q 357 -3 499 -3 q 311 0 334 -3 q 158 57 223 12 q 57 168 92 102 q 8 316 22 234 q 0 413 0 364 q 4 483 0 448 m 55 -293 q 52 -315 52 -304 q 60 -354 52 -335 q 100 -393 73 -383 q 166 -406 132 -406 q 172 -406 169 -406 q 231 -400 203 -406 q 292 -377 260 -393 q 348 -347 324 -362 q 397 -311 372 -332 q 436 -278 422 -291 q 464 -252 450 -266 q 420 -242 461 -251 q 354 -228 379 -233 q 283 -218 330 -224 q 210 -212 241 -212 q 206 -213 208 -212 q 140 -220 174 -213 q 83 -244 105 -228 q 55 -293 62 -261 z "},"H":{"ha":1301,"x_min":1,"x_max":1486,"o":"m 13 687 q 7 703 13 687 q 1 755 1 720 q 8 823 1 790 q 249 1048 62 1034 q 285 1050 266 1050 q 390 1042 333 1050 q 561 1013 469 1031 q 703 990 653 996 l 753 985 q 864 1027 793 1008 q 975 1050 935 1046 q 998 1050 987 1050 q 1072 1026 1056 1050 q 1077 1012 1077 1019 q 1060 985 1077 998 q 1006 962 1040 969 q 900 953 954 953 q 860 954 880 953 q 811 908 829 933 q 770 838 793 882 q 714 697 745 782 q 671 545 693 640 q 659 501 666 531 q 820 487 744 487 q 987 507 911 487 q 1037 643 1006 570 q 1108 795 1067 716 q 1199 934 1149 874 q 1297 1011 1250 994 q 1352 1023 1320 1021 q 1358 1023 1355 1023 q 1416 1013 1386 1023 q 1467 981 1449 1002 q 1485 924 1484 955 q 1486 916 1485 920 q 1474 860 1485 888 q 1449 803 1462 827 q 1417 750 1436 779 q 1293 606 1365 670 q 1139 507 1220 543 q 1125 463 1135 494 q 1108 409 1115 432 q 1091 351 1101 386 q 1075 288 1081 315 q 1062 226 1068 260 q 1055 164 1057 191 q 1055 149 1055 156 q 1057 109 1055 130 q 1067 60 1059 81 q 1090 22 1075 39 q 1126 -4 1105 5 q 1037 30 1074 5 q 980 83 1000 55 q 950 156 959 111 q 941 234 942 201 q 941 244 941 239 q 947 319 940 275 q 960 397 955 372 q 977 468 966 421 q 981 482 979 477 q 982 488 981 485 q 819 470 908 470 q 653 484 742 470 q 637 429 644 450 q 584 301 618 370 q 505 163 550 233 q 405 32 460 94 q 295 -73 351 -29 q 180 -137 240 -118 q 119 -146 149 -147 q 69 -139 93 -146 l 75 -122 q 124 -130 100 -130 q 171 -122 148 -130 q 256 -58 217 -106 q 325 40 295 -9 q 388 173 355 90 q 437 306 420 256 q 480 438 454 355 q 484 449 482 446 q 493 478 486 458 q 503 509 499 498 q 504 512 503 510 q 505 515 505 514 q 453 534 481 521 q 392 579 408 552 q 385 590 387 585 q 338 606 359 594 q 297 648 312 621 q 285 697 284 671 q 285 704 285 701 l 301 703 q 301 696 301 699 q 312 655 301 675 q 346 619 324 632 q 380 608 364 610 q 387 646 378 625 q 441 682 404 680 q 482 668 468 682 q 490 640 492 656 q 478 612 488 624 q 455 596 469 601 q 431 589 442 591 q 410 587 419 587 l 406 587 q 460 550 420 566 q 510 530 482 539 q 535 610 519 557 q 558 682 551 662 q 623 833 586 769 q 734 968 675 928 l 685 974 q 550 997 637 979 q 387 1025 463 1015 q 288 1032 334 1032 q 252 1031 269 1032 q 24 817 73 1017 q 17 767 17 792 q 24 714 17 741 q 76 621 38 659 q 162 585 113 584 q 165 585 164 585 l 165 567 q 97 584 128 568 q 45 627 65 600 q 13 687 26 653 m 399 606 q 405 605 401 606 q 411 604 409 604 q 417 604 413 604 q 431 606 421 604 q 449 612 441 608 q 465 623 457 615 q 473 642 472 631 q 469 656 476 652 q 443 665 462 665 q 403 639 413 663 q 399 606 395 623 m 878 978 q 928 976 905 977 q 1018 985 981 976 q 1053 1007 1053 994 q 1023 1025 1053 1021 q 1009 1025 1017 1025 q 971 1019 991 1025 q 878 978 927 1004 m 1146 529 q 1291 628 1225 568 q 1402 762 1357 688 q 1426 799 1417 784 q 1447 838 1435 813 q 1463 883 1459 863 q 1466 925 1468 902 q 1453 966 1464 948 q 1409 996 1433 996 q 1393 993 1401 996 q 1146 529 1268 940 z "},"I":{"ha":823,"x_min":1,"x_max":1116,"o":"m 4 134 q 31 199 9 166 l 47 189 q 17 109 17 145 q 37 56 17 80 q 100 20 58 28 q 147 15 123 15 l 184 18 q 264 41 227 24 q 336 81 303 58 q 393 129 370 104 q 437 190 416 154 q 471 254 458 225 q 497 327 484 283 q 518 401 511 371 q 537 479 526 431 q 557 555 549 528 q 571 603 562 576 q 610 717 581 636 q 636 782 618 745 q 637 784 636 783 q 637 786 637 785 q 648 810 642 796 q 655 822 650 814 q 661 833 659 829 q 707 903 683 871 q 726 928 712 910 q 746 954 740 945 q 465 889 612 913 q 410 880 448 886 q 331 866 358 871 q 255 849 304 861 q 180 823 207 836 q 120 786 154 810 q 70 733 86 762 q 44 663 54 705 q 38 606 38 636 q 40 570 38 588 q 76 473 45 519 q 156 404 107 427 q 211 391 183 391 q 254 399 233 391 l 261 382 q 211 374 235 374 q 174 378 192 374 q 100 418 132 390 q 47 487 68 447 q 22 570 26 528 q 21 606 21 588 q 27 667 22 639 q 55 742 37 711 q 104 797 74 773 q 168 836 135 821 q 244 863 201 851 q 325 882 287 875 q 408 897 363 889 q 461 905 444 902 q 728 977 517 916 q 746 982 734 979 q 765 987 759 985 q 871 1018 844 1010 l 875 1018 q 947 1039 913 1031 q 951 1040 949 1039 q 956 1040 954 1040 q 1015 1050 986 1047 q 1038 1050 1027 1050 q 1111 1026 1096 1050 q 1116 1012 1116 1019 q 1099 985 1116 998 q 1046 962 1079 969 q 946 953 989 953 q 895 957 918 953 q 881 945 892 958 q 859 918 870 933 q 843 895 848 903 q 799 811 817 853 q 776 751 787 784 q 758 695 765 719 q 741 633 751 671 q 724 574 730 594 q 712 533 722 566 q 698 488 702 499 q 686 448 694 476 q 671 402 677 419 q 657 363 665 386 q 640 321 648 340 q 380 43 553 118 q 296 16 346 27 q 194 -1 247 4 q 162 -2 178 -2 q 92 5 126 -3 q 22 45 45 16 q 4 80 9 60 q 1 106 1 91 q 4 134 1 119 m 917 978 q 968 977 945 977 q 1057 985 1022 977 q 1092 1007 1092 994 q 1063 1025 1092 1021 q 1048 1025 1055 1025 q 1010 1019 1029 1025 q 917 978 968 1005 z "},"J":{"ha":882,"x_min":-71,"x_max":1164,"o":"m -71 -197 q -52 -63 -71 -130 q -3 58 -33 3 q 69 156 27 113 q 155 221 111 199 q 241 243 196 243 q 248 243 245 243 q 340 210 298 241 q 368 170 362 194 q 369 154 369 161 q 361 117 369 136 q 301 41 345 74 q 229 12 263 12 q 221 12 225 12 l 222 28 q 227 28 225 28 q 292 56 256 28 q 346 123 331 85 q 352 153 352 139 q 329 196 352 178 q 244 225 290 225 q 243 226 243 226 q 157 202 198 226 q 77 137 116 179 q 9 42 38 95 q -36 -72 -19 -10 q -53 -193 -53 -134 q -53 -197 -53 -195 q 3 -351 -53 -284 q 143 -424 61 -420 q 153 -424 148 -424 q 288 -371 222 -424 q 361 -290 327 -339 q 421 -179 395 -240 q 466 -57 446 -117 q 502 75 486 3 q 528 197 518 146 q 549 309 538 247 q 564 392 559 370 q 569 422 564 402 q 575 449 574 443 q 581 475 577 458 q 587 501 585 492 q 618 618 603 565 q 688 851 655 749 q 596 793 662 836 q 489 728 531 750 q 430 693 467 716 q 386 665 393 669 q 339 628 375 658 q 304 595 304 600 q 304 595 304 595 q 327 505 325 550 q 327 497 327 500 q 307 415 327 455 q 275 380 296 393 q 248 372 262 372 q 233 375 241 372 q 201 414 211 385 q 195 451 195 433 q 214 517 195 484 q 282 599 235 556 q 227 682 248 654 q 237 693 231 689 q 296 611 268 659 q 310 624 297 612 q 330 642 323 636 q 381 680 353 660 q 431 712 410 700 q 487 746 451 724 q 539 777 524 767 q 608 822 572 797 q 685 879 644 848 q 750 928 726 910 q 1063 1050 902 1038 q 1086 1050 1075 1050 q 1160 1026 1143 1050 q 1164 1012 1164 1019 q 1147 985 1164 998 q 1095 962 1128 969 q 1006 954 1065 957 q 945 952 971 952 q 916 953 928 952 q 871 913 888 934 q 831 846 855 892 q 810 793 820 824 q 784 689 800 762 q 759 570 768 616 q 722 387 749 524 q 711 333 719 370 q 690 226 699 264 q 664 113 682 188 q 630 -8 646 39 q 587 -121 614 -54 q 531 -231 559 -189 q 462 -320 503 -273 q 376 -392 421 -367 q 272 -432 331 -417 q 182 -443 229 -443 q 147 -441 165 -443 q 38 -401 88 -437 q -42 -311 -13 -366 q -71 -197 -71 -257 m 215 440 q 237 394 220 404 q 273 401 254 385 q 302 449 292 418 q 310 497 310 473 q 289 583 310 538 q 214 453 214 511 q 215 440 214 446 m 965 978 q 1017 977 993 977 q 1105 985 1070 977 q 1140 1007 1140 994 q 1111 1025 1140 1021 q 1097 1025 1104 1025 q 1059 1019 1078 1025 q 965 978 1015 1004 z "},"K":{"ha":1301,"x_min":1,"x_max":1491,"o":"m 13 687 q 7 703 13 687 q 1 755 1 720 q 8 823 1 790 q 249 1048 62 1034 q 285 1050 266 1050 q 390 1042 333 1050 q 561 1013 469 1031 q 703 990 653 996 l 753 985 q 864 1027 793 1008 q 975 1050 935 1046 q 998 1050 987 1050 q 1072 1026 1056 1050 q 1077 1012 1077 1019 q 1060 985 1077 998 q 1006 962 1040 969 q 900 953 954 953 q 860 954 880 953 q 811 908 829 933 q 770 838 793 882 q 714 697 745 782 q 671 545 693 640 q 637 429 664 525 q 584 301 618 370 q 505 163 550 233 q 405 32 460 94 q 295 -73 351 -29 q 180 -137 240 -118 q 119 -146 149 -147 q 69 -139 93 -146 l 75 -122 q 124 -130 100 -130 q 171 -122 148 -130 q 256 -58 217 -106 q 325 40 295 -9 q 388 173 355 90 q 437 306 420 256 q 480 438 454 355 q 484 449 482 446 q 493 478 486 458 q 503 509 499 498 q 510 529 509 526 q 558 682 549 653 q 623 833 586 769 q 734 968 675 928 l 685 974 q 550 997 637 979 q 387 1025 463 1015 q 288 1032 334 1032 q 252 1031 269 1032 q 24 817 73 1017 q 17 767 17 792 q 24 714 17 741 q 76 621 38 659 q 162 585 113 584 q 165 585 164 585 l 165 567 q 97 584 128 568 q 45 627 65 600 q 13 687 26 653 m 713 578 l 718 596 q 792 610 758 599 q 855 642 826 621 q 906 684 884 663 q 952 739 928 705 q 990 797 975 772 q 1026 859 1005 821 q 1116 957 1053 907 q 1253 1040 1179 1006 q 1385 1076 1327 1074 l 1386 1076 q 1430 1125 1399 1104 q 1487 1149 1460 1145 l 1491 1136 q 1444 1117 1468 1134 q 1404 1076 1421 1101 q 1470 1048 1461 1074 q 1465 1019 1474 1033 q 1442 1000 1456 1006 q 1423 996 1432 996 q 1397 1010 1409 996 q 1381 1049 1381 1028 q 1382 1061 1381 1055 q 1318 1043 1348 1059 q 1259 991 1289 1027 q 1217 934 1230 955 q 1173 861 1203 913 q 1165 847 1168 852 q 994 654 1089 715 q 747 578 899 593 q 844 438 793 537 q 908 254 895 338 q 914 195 911 231 q 918 135 916 159 q 926 85 920 112 q 943 43 932 58 q 975 20 954 28 q 1007 14 989 15 q 1026 16 1016 14 q 1178 111 1088 24 q 1198 130 1180 113 q 1233 164 1215 147 q 1275 208 1250 182 q 1328 268 1299 234 q 1385 336 1357 301 l 1385 307 q 1187 94 1293 195 q 1102 28 1139 52 q 1028 -1 1065 4 q 996 -3 1011 -3 q 916 8 952 -3 q 837 54 867 23 q 786 128 806 84 q 756 219 765 172 q 742 319 747 266 q 734 418 736 373 q 729 508 733 464 q 717 578 724 553 l 713 578 m 878 978 q 928 976 905 977 q 1018 985 981 976 q 1053 1007 1053 994 q 1023 1025 1053 1021 q 1009 1025 1017 1025 q 971 1019 991 1025 q 878 978 927 1004 m 1398 1061 q 1399 1040 1396 1053 q 1410 1019 1402 1027 q 1434 1014 1417 1007 q 1448 1027 1442 1017 q 1453 1043 1455 1036 q 1448 1050 1452 1046 q 1430 1058 1443 1054 q 1398 1061 1417 1061 z "},"L":{"ha":1042,"x_min":0,"x_max":1132,"o":"m 0 104 q 26 176 0 140 q 90 237 52 212 q 164 281 127 263 q 228 306 200 299 q 296 313 261 313 q 492 267 386 313 q 576 530 531 357 q 657 791 621 703 q 600 788 629 788 q 528 793 564 788 q 407 826 461 803 q 315 886 352 850 q 274 968 278 922 q 274 977 273 972 q 306 1068 274 1019 l 315 1051 q 290 975 290 1010 q 290 966 290 970 q 328 894 294 926 q 414 841 363 862 q 531 811 465 819 q 598 807 564 807 q 665 811 631 807 q 818 998 720 937 q 998 1050 902 1050 q 1031 1048 1015 1050 q 1075 1002 1061 1048 q 1082 963 1082 982 q 1058 897 1082 928 q 937 815 1021 848 q 815 790 878 794 q 752 607 785 715 q 687 399 720 498 q 615 222 654 300 q 702 177 656 210 q 785 112 748 145 q 862 47 823 78 q 945 0 902 16 q 1006 -10 975 -11 q 1034 -8 1020 -10 q 1118 56 1082 2 l 1132 43 q 1036 -26 1088 -20 q 1009 -28 1023 -28 q 937 -16 972 -28 q 850 31 890 0 q 775 96 811 62 q 694 160 739 129 q 607 205 650 192 q 509 109 565 150 q 398 45 454 67 q 285 11 343 22 q 183 1 231 1 q 178 1 180 1 q 87 11 129 1 q 14 61 44 20 q 0 104 0 79 m 20 104 q 27 72 20 85 q 54 46 35 60 q 126 24 81 27 q 157 23 142 23 q 205 26 183 23 q 368 96 298 36 q 485 250 438 156 q 306 296 386 296 q 232 288 279 296 q 172 266 206 282 q 102 226 137 250 q 43 170 67 203 q 20 104 20 137 m 823 808 q 935 833 888 818 q 1042 905 1007 861 q 1066 968 1066 936 q 1061 996 1066 981 q 1049 1022 1055 1014 q 1031 1032 1043 1029 q 1025 1033 1028 1033 q 964 1004 1000 1034 q 876 903 923 971 q 858 873 866 888 q 839 838 849 858 q 823 808 829 819 z "},"M":{"ha":1547,"x_min":0,"x_max":1491,"o":"m 0 99 q 0 109 0 104 q 5 151 0 129 q 28 200 12 176 l 45 192 q 23 149 31 171 q 16 106 15 129 q 16 102 16 104 q 33 60 16 76 q 71 39 43 50 q 165 25 115 25 q 187 26 176 25 q 304 47 251 29 q 361 79 334 58 q 407 126 387 100 q 445 190 427 152 q 476 262 463 229 q 503 346 488 296 q 526 430 517 395 q 547 519 534 466 q 568 604 560 573 q 610 758 597 711 q 653 896 623 805 q 708 1034 684 986 q 463 978 626 1008 q 410 969 446 975 q 331 956 358 961 q 255 939 303 951 q 180 913 207 926 q 119 877 153 900 q 68 825 85 853 q 42 753 52 795 q 36 692 35 725 q 37 660 36 677 q 60 586 41 623 q 110 522 80 549 q 176 485 139 496 q 208 481 192 480 q 253 489 231 481 l 260 471 q 211 463 235 463 q 172 468 191 463 q 98 509 130 480 q 45 577 66 537 q 20 660 24 618 q 18 693 18 677 q 25 757 18 727 q 52 830 35 800 q 102 886 68 861 q 163 925 137 911 q 240 952 189 939 q 318 970 290 965 q 401 985 345 976 q 421 989 414 987 q 439 992 428 990 q 458 996 450 994 q 717 1055 644 1030 l 840 1042 q 840 1036 840 1040 q 853 912 840 1012 q 886 666 868 799 q 910 391 902 533 q 913 307 913 346 q 901 172 913 224 q 1010 411 940 277 q 1144 648 1080 544 q 1276 866 1208 752 q 1373 1042 1343 979 l 1491 1035 q 1428 692 1475 912 q 1371 418 1381 473 q 1354 330 1365 389 q 1337 241 1342 271 q 1323 162 1331 211 q 1314 83 1316 113 q 1314 36 1314 60 q 1314 19 1314 28 q 1322 -41 1314 -16 q 1343 -85 1329 -66 q 1377 -112 1357 -104 q 1428 -122 1397 -119 l 1423 -144 q 1411 -144 1417 -144 q 1335 -136 1369 -144 q 1268 -110 1295 -126 q 1223 -65 1241 -94 q 1195 -8 1206 -35 q 1183 64 1185 20 q 1181 119 1181 94 q 1181 144 1181 133 q 1191 233 1183 178 q 1205 326 1198 289 q 1223 424 1212 363 q 1292 708 1240 512 q 1358 966 1345 903 q 1276 822 1340 928 q 1145 608 1212 716 q 1008 367 1079 500 q 904 142 938 235 l 889 132 q 896 256 896 182 q 878 576 897 381 q 821 1007 848 888 q 778 863 798 947 q 745 703 759 780 q 713 542 730 627 q 670 381 695 456 q 609 239 644 307 q 517 118 573 172 q 387 33 460 64 q 236 3 330 7 q 184 1 208 1 q 61 20 108 1 q 17 52 33 31 q 0 99 1 73 z "},"N":{"ha":1215,"x_min":-131,"x_max":1542,"o":"m -131 -138 l -125 -121 q -81 -128 -102 -127 q 157 106 46 -128 q 278 434 206 212 q 283 450 281 445 q 301 510 301 509 q 309 532 307 526 q 336 615 318 561 q 358 684 353 669 q 421 835 388 777 q 463 896 437 863 q 587 1002 514 965 q 775 1051 682 1049 q 811 1054 800 1054 q 758 1026 774 1035 q 714 1001 742 1018 q 668 968 687 984 q 681 789 670 896 q 729 436 700 608 q 770 232 734 393 q 818 53 806 71 q 830 138 821 85 q 857 283 838 192 q 900 465 876 374 q 961 657 924 556 q 1040 839 998 758 q 1140 983 1082 920 q 1261 1068 1198 1046 q 1354 1087 1308 1084 q 1367 1087 1360 1088 q 1444 1074 1405 1087 q 1521 1019 1491 1057 q 1539 983 1534 1004 q 1542 960 1542 972 q 1540 931 1542 947 q 1512 865 1535 899 l 1496 875 q 1526 956 1526 919 q 1507 1008 1526 985 q 1420 1058 1467 1058 q 1297 983 1363 1058 q 1186 823 1239 920 q 1091 618 1133 727 q 1013 405 1049 510 q 934 186 976 300 q 857 -3 892 72 l 825 -3 q 782 111 810 7 q 738 298 755 215 q 711 433 721 382 q 663 789 682 612 q 650 951 652 890 q 616 914 631 935 q 522 718 569 852 q 481 583 507 671 q 443 457 455 495 q 208 37 367 218 q -79 -146 50 -146 q -131 -138 -105 -146 z "},"O":{"ha":838,"x_min":1,"x_max":957,"o":"m 3 339 q 1 380 1 359 q 8 469 1 425 q 38 600 18 534 q 82 719 58 665 q 134 821 106 774 q 340 1013 213 955 q 524 1053 425 1053 q 624 1043 572 1053 l 624 1042 q 623 1040 623 1042 q 622 1037 623 1038 q 621 1034 621 1036 q 620 1030 621 1031 q 618 1027 619 1028 l 618 1025 l 618 1025 q 575 1028 596 1028 q 497 1015 534 1028 q 191 555 315 942 q 178 510 188 545 q 162 456 168 475 q 148 400 157 437 q 135 338 138 362 q 127 279 131 315 q 123 233 124 254 q 125 218 123 225 q 131 164 126 194 q 147 113 136 134 q 176 73 158 92 q 220 41 195 54 q 322 20 271 20 q 332 20 327 20 q 439 47 389 23 q 587 157 530 94 q 717 336 667 236 q 799 675 799 499 q 799 692 799 683 l 799 693 q 587 623 694 625 q 553 625 574 623 q 484 644 513 631 q 440 676 454 658 q 419 709 426 694 q 411 741 413 724 q 410 754 410 747 q 447 861 410 807 q 509 925 472 898 q 586 960 545 952 q 631 964 609 964 q 720 940 680 964 q 789 852 765 913 q 806 791 802 817 q 811 758 808 781 q 812 742 812 753 q 813 736 812 741 q 814 729 814 732 q 814 725 814 726 q 942 900 911 800 l 957 895 q 815 705 924 785 l 815 692 q 815 667 816 680 q 733 329 815 488 q 600 144 673 214 q 446 31 534 75 q 318 1 380 1 q 315 1 317 1 q 200 28 252 1 q 91 109 135 60 q 27 216 47 159 q 3 339 7 273 m 428 742 q 465 675 432 701 q 554 642 498 648 q 586 640 570 640 q 677 654 631 640 q 798 713 741 673 q 784 812 795 770 q 751 889 774 854 q 686 937 728 924 q 629 946 661 945 q 583 942 608 946 q 558 933 572 939 q 490 886 521 917 q 441 817 466 862 q 427 755 427 783 q 428 742 427 748 z "},"P":{"ha":983,"x_min":-102,"x_max":1033,"o":"m -102 -138 l -96 -121 q -52 -127 -73 -127 q -50 -127 -50 -127 q 122 -8 43 -127 q 249 258 187 87 q 357 600 277 337 q 374 659 361 614 q 392 723 387 704 q 411 779 398 741 q 435 840 425 817 q 463 892 446 863 q 498 946 479 922 q 624 1032 547 1008 q 786 1055 692 1054 q 812 1054 799 1055 q 888 1042 857 1051 q 949 1006 920 1033 q 1017 899 996 959 q 1033 806 1033 852 q 1031 781 1033 793 q 1003 667 1026 724 q 943 568 979 611 q 862 496 907 524 q 772 465 817 469 q 746 465 760 465 q 631 484 688 465 q 546 555 562 509 l 564 557 q 667 488 589 502 q 687 486 677 486 q 814 570 753 486 q 903 780 877 656 q 913 878 913 834 q 895 975 913 935 q 828 1026 872 1021 q 798 1028 812 1028 q 632 937 693 1028 q 592 864 610 906 q 566 795 574 821 q 542 714 557 769 q 511 597 534 688 q 472 457 487 506 q 237 37 396 218 q -50 -146 79 -146 q -102 -138 -76 -146 z "},"Q":{"ha":962,"x_min":110,"x_max":1068,"o":"m 111 339 q 110 382 110 360 q 117 469 110 426 q 146 600 126 534 q 190 719 165 665 q 241 821 214 774 q 448 1013 321 954 q 632 1053 533 1053 q 732 1043 680 1053 l 731 1042 q 731 1040 731 1042 q 730 1037 730 1038 q 729 1034 730 1036 q 728 1030 728 1031 q 727 1027 728 1028 q 727 1025 727 1025 l 726 1025 q 684 1028 705 1028 q 606 1015 643 1028 q 298 555 422 942 q 286 510 296 545 q 270 456 275 475 q 255 400 264 437 q 242 338 246 362 q 235 279 239 315 q 232 233 232 254 q 232 218 232 225 q 239 163 234 193 q 255 113 244 134 q 284 73 266 92 q 328 41 302 54 q 431 20 378 20 q 441 20 435 20 q 547 47 498 22 q 696 157 639 94 q 825 336 775 236 q 907 675 907 498 q 907 692 907 684 l 907 693 q 697 624 802 624 q 663 627 684 624 q 605 641 630 631 q 565 663 579 651 q 540 690 550 675 q 526 717 530 705 q 521 742 522 729 q 520 755 520 748 q 545 840 520 798 q 595 904 564 876 q 650 944 627 932 q 689 958 674 956 q 739 962 715 962 q 799 954 772 962 q 870 904 844 940 q 907 824 895 867 q 922 724 919 781 q 1051 901 1020 802 l 1068 896 q 924 704 1034 787 l 924 692 q 924 667 924 680 q 842 329 924 488 q 708 144 783 215 q 554 31 642 75 q 514 14 534 20 q 608 -33 564 -4 q 680 -91 652 -62 q 735 -148 708 -119 q 783 -195 762 -177 q 830 -221 805 -214 q 850 -224 840 -224 q 885 -217 867 -224 q 954 -172 916 -205 l 965 -184 q 859 -247 911 -228 q 782 -262 817 -262 q 767 -261 774 -262 q 688 -239 726 -257 q 622 -193 650 -220 q 568 -134 593 -165 q 525 -74 542 -102 q 493 -23 508 -45 q 472 4 479 -1 q 431 1 449 1 q 416 1 423 1 q 261 -100 333 -23 l 244 -83 q 343 -9 286 -43 q 376 5 369 2 q 309 28 348 10 q 199 109 243 60 q 136 216 155 159 q 111 339 116 273 m 538 743 q 575 675 543 701 q 665 643 608 650 q 702 640 684 640 q 905 711 801 640 q 898 791 903 758 q 878 858 892 825 q 841 910 863 891 q 780 939 818 930 q 730 945 758 945 q 692 942 712 945 q 686 940 690 941 q 681 939 682 939 q 575 857 618 915 q 537 754 537 804 q 538 743 537 749 z "},"R":{"ha":1042,"x_min":-144,"x_max":1064,"o":"m -144 -138 l -139 -121 q -94 -127 -117 -127 q -92 -127 -93 -127 q 79 -8 0 -127 q 205 258 142 85 q 314 600 238 350 q 331 659 318 614 q 350 723 344 704 q 369 779 355 741 q 393 840 382 817 q 420 892 404 863 q 456 946 437 922 q 581 1032 503 1008 q 743 1055 648 1054 q 770 1054 756 1055 q 845 1042 814 1051 q 905 1006 876 1033 q 987 832 979 932 q 996 763 996 798 q 979 669 996 715 q 885 534 952 589 q 728 469 817 479 q 806 381 776 433 q 847 276 836 330 q 863 165 859 223 q 865 92 865 127 q 864 54 865 73 q 862 -32 862 9 q 863 -46 863 -39 q 870 -127 863 -94 q 897 -179 878 -160 q 945 -195 913 -195 q 956 -194 949 -195 q 1059 -163 997 -191 l 1064 -179 q 935 -201 981 -201 q 827 -172 873 -201 q 754 -75 780 -138 q 723 61 728 -14 q 718 199 718 131 q 718 208 718 203 q 718 226 718 216 q 716 352 719 289 q 701 465 713 425 l 700 465 q 667 463 684 463 q 631 465 650 463 q 561 477 593 469 q 513 505 529 484 q 503 530 503 516 q 509 553 503 541 q 545 590 522 582 q 568 595 557 594 q 594 590 581 595 q 644 563 618 581 q 688 525 669 545 q 718 488 707 505 q 768 549 734 491 q 832 697 801 607 q 869 863 863 787 q 869 875 869 869 q 850 976 869 936 q 785 1026 830 1020 q 755 1028 769 1028 q 589 937 650 1028 q 549 864 567 906 q 522 795 530 821 q 498 714 514 769 q 467 595 490 686 q 429 457 444 505 q 195 37 353 218 q -92 -146 37 -146 q -144 -138 -119 -146 m 526 546 q 523 532 523 538 q 567 495 523 509 q 663 482 610 482 q 694 484 678 482 q 647 541 680 512 q 579 576 613 569 q 568 578 574 578 q 526 546 542 578 z "},"S":{"ha":694,"x_min":1,"x_max":777,"o":"m 2 225 q 1 254 1 239 q 42 391 1 330 q 127 460 76 439 q 131 460 129 460 q 132 458 132 460 l 139 443 q 139 440 140 442 q 138 439 139 439 q 71 393 98 425 q 33 323 43 362 q 24 249 24 288 q 24 241 24 245 q 43 158 26 198 q 90 85 61 117 q 164 35 118 54 q 251 20 204 19 q 265 20 258 20 q 372 129 321 22 q 425 317 412 212 q 430 389 430 356 q 411 489 430 452 q 403 502 408 496 q 395 513 399 508 q 384 524 391 518 q 374 534 378 530 q 362 543 370 537 q 351 551 354 549 q 338 559 348 553 q 327 566 329 565 q 313 574 324 568 q 301 581 302 580 q 225 631 260 602 q 147 791 147 697 q 149 817 147 804 q 180 916 155 871 q 242 990 205 961 q 327 1038 279 1020 q 422 1055 373 1055 q 424 1055 422 1055 q 525 1042 474 1055 q 611 989 576 1025 q 659 908 646 953 q 660 905 659 906 q 663 905 662 904 q 764 953 710 932 q 768 951 767 953 l 775 945 q 774 939 777 943 q 746 926 765 935 q 717 913 728 918 q 691 901 706 909 q 665 885 676 893 q 663 880 663 882 q 664 863 664 872 q 657 818 664 843 l 657 817 q 620 760 644 783 q 587 744 604 744 q 572 747 580 744 q 554 776 554 756 q 565 814 554 795 q 591 847 576 832 q 639 890 601 860 q 640 895 640 892 q 600 973 633 939 q 518 1025 567 1008 q 466 1034 491 1034 q 388 1005 422 1034 q 315 880 335 962 q 300 765 300 819 q 328 637 300 693 q 372 584 343 608 q 435 534 401 559 q 488 488 469 510 q 550 380 529 440 q 568 277 569 330 q 568 258 568 268 q 534 140 564 195 q 350 8 480 34 q 261 -1 303 -1 q 81 62 152 -1 q 2 225 12 125 m 583 808 q 579 802 583 808 q 572 782 575 795 q 581 764 568 768 q 612 778 594 758 q 639 822 631 798 l 639 823 q 646 862 646 847 q 646 867 646 865 q 644 870 646 869 q 640 869 642 871 q 602 832 621 856 q 583 808 591 822 z "},"T":{"ha":715,"x_min":43,"x_max":1136,"o":"m 52 836 q 141 998 81 949 q 290 1054 201 1047 q 331 1055 310 1055 q 431 1049 377 1055 q 605 1024 510 1040 q 746 1003 701 1008 q 874 994 818 994 q 888 994 882 994 q 993 1002 949 996 q 1063 1021 1036 1009 q 1103 1043 1090 1032 q 1117 1061 1116 1053 l 1136 1059 q 1119 1034 1135 1046 q 1074 1007 1103 1021 q 989 986 1044 994 q 865 977 935 977 l 815 977 q 752 842 783 924 q 703 704 720 760 q 653 526 686 648 q 610 368 620 404 q 407 37 535 184 q 237 -111 320 -65 q 235 -113 237 -112 q 233 -114 234 -113 q 121 -146 174 -146 q 68 -138 94 -146 l 74 -121 q 117 -127 96 -127 q 182 -111 150 -127 q 272 -37 234 -84 q 349 95 309 11 q 411 241 389 178 q 464 396 434 304 q 481 470 476 450 q 498 541 486 490 q 519 616 511 592 q 541 684 526 640 q 568 754 555 729 q 598 817 580 780 q 636 879 617 854 q 679 932 655 905 q 730 982 703 960 q 555 1013 684 986 q 372 1036 445 1036 q 347 1035 359 1036 q 259 986 300 1030 q 196 880 218 941 q 163 757 174 819 q 159 703 159 728 q 165 649 159 673 q 208 597 178 604 l 208 579 q 139 596 171 580 q 89 639 108 612 q 56 699 69 665 q 43 766 43 732 q 52 836 43 802 z "},"U":{"ha":802,"x_min":0,"x_max":964,"o":"m 0 1052 q 31 1116 1 1083 q 62 1140 41 1127 q 25 1166 49 1162 l 33 1178 q 56 1167 41 1178 q 78 1146 71 1156 q 113 1152 89 1152 q 178 1139 146 1152 q 288 1064 245 1110 q 350 968 331 1018 q 368 859 368 922 q 368 850 368 854 q 356 725 366 782 q 319 589 345 668 q 272 459 292 511 q 219 333 251 408 q 172 220 186 256 q 142 134 157 183 q 132 75 131 97 q 133 62 132 68 q 158 31 137 39 q 209 19 184 20 q 216 19 212 19 q 257 26 237 19 q 299 44 281 34 q 345 72 317 54 q 507 243 427 129 q 635 490 566 328 l 688 604 q 761 777 705 642 q 850 975 818 911 l 964 968 q 916 823 945 913 q 873 696 886 733 q 837 589 861 659 q 786 446 812 519 q 722 269 760 372 q 675 117 693 187 q 654 -5 659 46 q 650 -60 651 -34 q 652 -100 650 -81 q 668 -170 656 -142 q 696 -218 679 -198 q 732 -248 713 -238 q 773 -263 751 -258 q 814 -265 794 -267 q 851 -257 833 -263 l 860 -269 q 823 -277 846 -274 q 802 -278 814 -278 q 772 -277 788 -278 q 713 -264 743 -274 q 653 -235 682 -255 q 599 -188 624 -216 q 558 -117 574 -161 q 537 -20 543 -73 q 535 18 535 -2 q 543 109 535 59 q 582 271 553 183 q 608 349 593 301 q 627 410 623 397 q 521 231 581 319 q 355 58 439 114 q 204 3 273 3 q 150 12 176 3 q 108 36 125 21 q 75 77 90 51 q 54 145 60 103 q 48 218 48 178 q 49 244 48 231 q 146 583 53 356 q 157 608 153 600 q 174 650 161 620 q 195 701 186 680 q 216 757 203 722 q 237 819 229 792 q 252 880 245 845 q 262 941 260 914 q 262 961 262 951 q 260 998 262 979 q 247 1050 258 1028 q 218 1091 237 1072 q 172 1122 199 1110 q 113 1133 147 1133 q 85 1129 99 1133 q 92 1099 92 1114 q 77 1051 92 1076 q 28 1017 52 1017 q 20 1019 24 1017 q 0 1052 0 1025 m 18 1046 q 37 1039 22 1031 q 62 1067 50 1046 q 73 1103 73 1084 q 69 1124 73 1113 q 43 1105 53 1118 q 18 1055 17 1075 q 18 1046 17 1050 z "},"V":{"ha":998,"x_min":0,"x_max":1292,"o":"m 4 682 q 1 731 1 708 q 11 804 0 772 q 63 884 27 856 q 151 932 100 913 q 260 959 203 951 q 379 974 317 966 q 495 987 441 981 q 598 1010 550 994 q 675 1051 647 1026 l 722 1050 q 742 844 742 972 q 741 804 742 825 q 724 512 738 648 q 697 236 709 376 q 688 74 688 131 q 689 41 688 56 q 763 265 722 161 q 861 468 804 369 q 971 647 918 567 q 1109 839 1025 726 q 1279 1053 1192 950 q 1285 1045 1281 1050 q 1292 1038 1289 1040 q 864 411 1040 729 q 699 1 744 202 l 672 0 q 642 101 654 56 q 611 225 629 145 q 583 373 593 305 q 570 532 574 441 q 568 589 568 561 q 574 700 568 647 q 607 865 582 779 q 672 1026 631 951 q 586 986 637 1002 q 480 965 534 970 q 368 952 427 959 q 257 939 309 945 q 158 914 205 932 q 78 870 111 897 q 29 796 45 844 q 18 720 18 762 q 20 682 18 702 q 43 607 23 644 q 92 544 62 570 q 159 507 122 518 q 190 503 174 503 q 235 511 212 503 l 240 493 q 190 485 214 485 q 153 490 171 485 q 80 530 112 501 q 27 599 47 558 q 4 682 7 640 z "},"W":{"ha":1530,"x_min":1,"x_max":1828,"o":"m 4 682 q 1 732 1 709 q 7 793 1 766 q 49 870 20 841 q 119 920 78 900 q 210 950 159 940 q 312 967 260 960 q 419 979 364 973 q 520 991 473 984 q 608 1014 567 999 q 675 1051 650 1029 l 722 1050 q 742 844 742 972 q 741 804 742 825 q 724 512 738 648 q 697 236 709 376 q 688 74 688 131 q 689 41 688 56 q 763 266 722 162 q 861 468 805 369 q 972 647 918 566 q 1109 839 1026 727 l 1243 1010 l 1255 993 l 1255 991 q 1286 642 1286 821 q 1284 567 1286 605 q 1225 41 1276 349 q 1362 432 1283 269 q 1402 508 1380 469 q 1443 575 1425 547 q 1491 647 1461 604 q 1535 709 1520 689 q 1586 777 1550 730 q 1632 839 1621 824 q 1733 959 1672 892 q 1815 1051 1794 1026 l 1828 1038 q 1400 411 1588 749 q 1235 1 1281 200 l 1210 1 q 1120 444 1120 218 q 1120 472 1120 457 q 1231 961 1126 712 q 864 411 1017 686 q 699 1 744 202 l 672 0 q 642 101 654 56 q 611 225 629 145 q 583 373 593 305 q 570 532 574 441 q 568 589 568 561 q 574 700 568 647 q 607 865 582 779 q 672 1026 631 951 q 586 986 637 1002 q 480 965 534 970 q 368 952 427 959 q 257 939 309 945 q 158 914 205 932 q 79 870 111 897 q 30 796 46 844 q 19 720 19 763 q 21 682 19 702 q 43 607 24 644 q 92 544 62 570 q 159 507 122 518 q 190 503 174 503 q 235 511 212 503 l 240 493 q 191 485 215 485 q 153 490 171 484 q 80 530 113 502 q 28 600 48 559 q 4 682 7 640 z "},"X":{"ha":868,"x_min":0,"x_max":982,"o":"m 0 111 l 14 121 q 158 20 85 20 q 174 21 165 20 q 277 64 237 29 q 408 231 327 102 q 534 488 478 340 q 526 536 531 503 q 517 585 520 569 q 461 848 477 792 q 454 879 460 854 q 446 916 449 903 q 435 950 442 928 q 421 984 428 972 q 403 1009 414 997 q 379 1025 392 1021 q 366 1027 372 1027 q 272 961 326 1027 q 291 871 291 903 q 289 852 291 861 q 265 814 281 826 q 234 809 249 803 q 214 833 220 814 q 210 857 210 844 q 216 894 210 873 q 252 962 228 930 l 244 972 q 193 1038 214 1015 l 204 1051 q 261 977 239 1013 q 317 1026 281 1006 q 393 1050 352 1046 q 414 1050 403 1050 q 472 1042 444 1050 q 543 996 511 1031 q 587 905 574 960 q 637 673 603 844 q 715 803 676 743 q 800 922 754 863 q 894 1015 846 980 q 982 1051 941 1050 l 982 1035 q 913 1008 951 1034 q 842 945 876 983 q 770 853 808 907 q 702 751 732 800 q 642 647 672 702 q 643 643 642 646 q 644 639 644 640 q 653 588 646 621 q 663 542 661 555 q 697 372 689 408 q 727 239 709 321 q 780 44 760 85 q 830 14 795 14 q 854 17 842 14 l 857 4 q 813 0 836 0 q 812 -1 812 0 q 768 9 791 -1 q 722 33 745 18 q 678 74 700 47 q 636 134 656 100 q 600 215 617 168 q 570 318 583 262 q 542 457 547 429 q 424 225 479 308 q 382 159 393 177 q 345 109 370 141 q 297 57 319 76 q 153 1 233 1 q 105 11 127 2 q 64 36 83 19 q 32 70 45 54 q 0 111 18 85 m 229 840 q 252 826 236 819 q 273 859 266 833 q 275 882 275 870 q 258 945 275 914 q 227 859 227 893 q 229 840 227 849 z "},"Y":{"ha":831,"x_min":-5,"x_max":903,"o":"m -5 721 q -5 726 -5 724 q 37 838 -5 770 q 150 971 83 910 q 83 1084 132 1023 l 94 1095 q 165 982 144 1034 q 210 1015 187 1000 q 262 1042 233 1029 q 313 1053 288 1053 q 318 1053 316 1053 q 370 1035 347 1051 q 403 1001 391 1021 q 418 958 416 982 q 420 919 420 937 q 420 910 420 914 q 410 855 420 887 q 392 801 399 823 q 367 744 384 779 q 340 692 349 710 q 313 641 331 674 q 289 599 294 608 q 256 540 281 585 q 222 479 231 495 q 195 425 214 463 q 169 365 176 387 q 151 310 161 343 q 137 245 141 277 q 134 180 134 214 q 200 39 134 75 q 265 23 231 23 q 386 64 321 23 q 441 106 415 83 q 489 158 467 130 q 529 213 511 186 q 565 275 546 239 q 596 336 583 310 q 629 403 610 363 q 660 468 648 444 l 721 600 q 743 656 722 602 q 786 763 765 711 q 810 818 807 814 l 825 811 q 706 418 747 599 q 671 109 671 262 q 672 58 671 83 q 903 338 745 137 l 903 310 q 833 222 886 289 q 746 114 781 156 q 672 31 711 73 q 683 -66 682 -9 q 683 -83 683 -75 q 676 -191 683 -134 q 651 -327 668 -258 q 606 -457 635 -395 q 540 -566 577 -519 q 449 -638 503 -613 q 357 -659 406 -659 q 334 -657 346 -659 q 268 -621 291 -652 q 241 -548 244 -590 q 241 -524 241 -536 q 245 -465 241 -494 q 265 -392 252 -424 q 329 -269 290 -331 q 396 -182 357 -227 q 469 -94 431 -136 q 507 -56 485 -77 q 539 -24 530 -34 q 543 72 543 20 q 539 184 543 123 q 503 142 534 175 q 393 47 450 85 q 286 4 341 13 q 258 2 271 2 q 189 18 220 2 q 77 105 119 57 q 20 200 36 153 q 11 264 11 230 q 14 307 11 284 q 41 413 23 366 q 97 524 59 460 q 164 629 134 587 q 238 732 193 671 q 309 831 287 798 q 356 909 332 864 q 378 977 378 951 q 378 982 378 979 q 353 1025 376 1008 q 313 1036 336 1036 q 172 964 258 1036 q 180 890 180 928 q 170 802 180 848 q 100 682 153 716 q 58 668 80 668 q 33 673 45 668 q -5 721 -3 686 m 12 721 q 27 694 13 703 q 60 686 42 686 q 89 694 77 687 q 131 746 115 713 q 154 814 148 779 q 160 886 159 849 q 161 897 161 892 q 155 950 161 928 q 52 827 93 892 q 12 726 12 766 q 12 721 12 724 m 259 -536 q 278 -603 260 -574 q 330 -637 296 -632 q 348 -639 339 -639 q 397 -627 374 -639 q 450 -582 429 -610 q 488 -515 471 -554 q 514 -441 505 -476 q 529 -372 524 -407 q 540 -256 538 -313 q 541 -205 541 -231 q 539 -141 541 -174 q 538 -85 538 -109 q 539 -50 538 -65 q 515 -75 532 -57 q 485 -107 498 -93 q 411 -191 469 -123 q 343 -281 374 -236 q 282 -397 304 -343 q 264 -461 271 -425 q 259 -529 259 -494 q 259 -536 259 -532 z "},"Z":{"ha":954,"x_min":-1,"x_max":1057,"o":"m 3 100 q 33 153 7 128 q 103 186 58 178 q 146 191 121 191 q 244 178 186 191 q 374 401 269 220 q 554 701 479 583 q 700 907 629 819 q 607 934 659 918 q 516 964 555 951 q 433 991 477 978 q 354 1011 389 1004 q 290 1017 323 1017 q 284 1017 287 1017 q 221 1006 249 1017 q 149 937 149 978 q 151 924 149 930 q 195 877 157 896 q 259 863 224 863 q 282 864 271 863 l 283 847 q 258 846 274 846 q 176 868 210 846 q 134 921 142 890 q 132 938 132 929 q 148 987 132 963 q 215 1039 170 1021 q 270 1050 240 1049 q 280 1050 275 1050 q 334 1045 307 1050 q 400 1028 366 1038 q 474 1003 435 1017 q 550 974 513 988 q 629 945 586 960 q 710 921 673 930 q 799 991 743 958 q 920 1037 856 1024 q 954 1040 938 1040 q 1029 1018 996 1040 q 1051 991 1045 1009 q 1053 953 1057 973 q 1024 900 1049 925 q 954 865 999 875 q 912 861 935 861 q 818 873 872 861 q 664 639 743 769 q 504 365 586 509 q 376 146 422 220 q 467 119 417 135 q 554 90 517 102 q 632 65 590 77 q 707 47 674 53 q 763 43 734 43 q 773 43 768 43 q 835 54 807 45 q 895 88 879 73 q 906 115 906 99 q 904 129 906 121 q 860 177 897 158 q 799 191 833 191 q 774 189 787 191 l 772 205 q 799 207 782 207 q 881 185 847 207 q 922 132 915 163 q 924 115 924 124 q 907 66 924 91 q 840 16 886 34 q 776 3 811 3 q 707 13 741 3 q 630 37 673 22 q 549 69 587 53 q 461 103 511 85 q 370 132 412 121 q 283 43 336 75 q 181 7 231 12 q 146 6 163 6 q 90 11 116 7 q 25 33 48 18 q 5 61 11 43 q 3 100 -1 79 m 20 96 q 18 85 18 90 q 39 47 18 63 q 72 35 54 36 q 108 41 90 33 q 143 61 125 49 q 177 93 160 74 q 209 129 195 111 q 236 165 222 146 q 151 175 188 175 q 106 171 125 175 q 45 141 67 162 q 20 96 23 119 m 829 889 q 913 878 878 878 q 950 882 935 878 q 1010 910 989 889 q 1038 957 1031 932 q 1038 967 1038 962 q 1022 1006 1038 991 q 1000 1015 1012 1013 q 976 1013 989 1017 q 952 1003 964 1008 q 926 987 941 998 q 902 967 912 975 q 879 944 892 959 q 859 923 865 930 q 842 903 853 916 q 829 889 830 890 z "},"\\":{"ha":430,"x_min":0,"x_max":261,"o":"m 0 1053 l 24 1075 l 261 14 l 233 -1 l 0 1053 z "},"a":{"ha":646,"x_min":7,"x_max":772,"o":"m 8 157 q 82 358 24 277 q 214 472 140 439 q 339 499 271 498 q 347 499 343 499 q 453 473 410 499 q 480 444 470 463 q 495 395 491 424 q 500 345 499 366 q 501 292 501 325 l 501 272 l 484 272 l 484 292 q 481 364 484 339 q 478 383 481 372 q 441 460 469 439 q 395 472 422 472 q 387 472 391 472 q 319 456 355 470 q 154 153 199 404 q 145 79 145 109 q 161 29 145 40 q 176 26 168 26 q 220 45 193 26 q 286 123 255 71 q 359 310 336 203 l 367 342 l 418 338 q 429 328 426 338 q 432 299 433 318 q 430 260 432 279 q 424 214 428 241 q 416 169 421 197 q 409 123 412 140 q 405 90 407 107 q 404 65 404 73 q 408 58 407 60 q 419 57 412 54 q 458 82 439 68 q 751 428 611 194 l 772 428 q 665 267 721 340 q 570 154 610 194 q 492 85 530 114 q 440 47 454 56 q 418 36 425 39 q 395 31 407 31 l 387 31 l 386 31 l 385 31 q 365 41 372 33 q 354 57 357 49 q 342 151 342 90 q 343 197 342 172 q 285 87 315 130 q 232 31 257 48 q 148 4 208 12 q 112 1 128 1 q 57 12 78 1 q 17 68 31 28 q 7 132 7 97 q 8 157 7 144 z "},"b":{"ha":696,"x_min":0,"x_max":847,"o":"m 11 237 q 36 326 20 270 q 62 419 52 382 q 75 469 73 456 q 115 610 100 565 q 170 754 143 697 l 170 755 q 467 1067 290 1027 q 477 1067 472 1067 q 518 1053 499 1067 q 558 981 554 1025 q 559 963 559 972 q 522 845 559 910 q 397 668 479 768 q 361 625 385 652 q 310 567 345 606 q 258 507 275 527 l 215 460 q 200 404 213 452 q 191 368 198 398 q 173 307 185 349 q 155 244 161 264 q 279 467 212 405 q 361 502 312 495 q 385 504 374 503 q 444 490 418 504 q 532 395 507 456 q 550 330 544 363 q 554 302 551 326 q 555 275 555 289 q 541 171 555 223 q 486 53 522 104 q 472 33 473 37 q 572 109 522 62 q 724 275 654 186 q 828 427 794 364 l 847 427 q 745 272 817 365 q 585 94 674 179 q 368 -14 468 -14 q 332 -9 350 -14 q 299 0 315 -6 q 270 15 283 7 q 245 33 257 23 q 225 52 234 42 q 208 72 216 62 q 194 90 200 81 q 185 105 189 99 q 179 116 181 111 l 176 121 q 180 134 174 130 q 193 129 191 136 q 201 114 193 127 q 227 78 208 100 q 267 40 245 56 q 280 32 269 37 q 310 23 292 26 q 340 33 328 20 q 344 38 342 35 q 347 43 347 41 q 354 56 348 43 q 385 149 372 92 q 387 161 385 153 q 389 174 388 170 q 404 319 404 254 q 397 397 404 361 q 342 475 385 475 q 339 475 340 475 q 311 467 326 474 q 251 410 280 450 q 201 318 222 370 q 165 217 180 265 q 139 118 151 168 q 137 109 138 115 q 135 100 136 102 q 125 54 134 96 q 122 35 125 45 l 117 3 q 85 3 85 1 q 22 72 48 20 q 0 167 0 117 q 11 237 0 201 m 222 496 q 239 514 223 496 q 382 679 362 654 q 410 714 391 690 q 541 968 541 877 q 541 979 541 973 q 519 1028 538 1006 q 478 1047 501 1048 q 473 1047 476 1047 l 471 1047 q 397 985 433 1039 q 351 896 379 956 q 261 640 307 798 q 258 631 261 636 q 242 570 255 618 q 222 496 229 521 z "},"c":{"ha":456,"x_min":1,"x_max":616,"o":"m 3 236 q 86 411 14 338 q 175 472 131 454 q 300 501 235 499 q 354 497 328 501 q 401 482 379 494 q 408 478 404 481 q 414 475 412 476 q 439 446 431 465 l 425 432 q 403 460 416 452 q 390 467 395 465 q 355 472 374 472 q 339 471 347 472 q 281 456 310 468 q 207 399 242 441 q 158 297 174 356 q 132 134 132 212 q 134 98 132 116 q 191 24 138 24 q 215 28 201 24 q 216 29 215 29 q 261 49 233 34 q 402 170 313 75 q 596 427 492 264 l 616 427 q 275 32 463 151 q 196 5 250 15 q 164 1 180 1 q 146 0 159 0 q 140 1 144 0 q 135 1 137 1 q 54 42 87 7 q 9 127 22 77 q 1 201 1 161 q 3 236 1 218 z "},"d":{"ha":708,"x_min":0,"x_max":867,"o":"m 1 160 q 75 360 17 279 q 207 473 134 441 q 290 498 244 491 q 338 501 315 501 q 378 498 358 501 q 397 563 385 521 q 411 608 410 604 q 446 704 427 661 l 446 705 q 455 727 448 711 q 465 753 462 744 l 467 753 q 762 1065 585 1025 q 773 1066 768 1066 q 814 1051 795 1066 q 854 978 850 1023 q 856 960 856 969 q 822 848 856 911 q 704 679 781 774 q 693 665 701 676 q 671 640 680 649 q 657 624 663 629 q 601 559 638 601 q 554 505 564 517 l 549 500 q 485 399 513 459 q 472 367 482 391 q 458 330 463 343 q 439 272 443 286 q 429 235 433 245 q 415 157 418 181 q 414 148 415 153 q 414 139 414 142 q 414 125 414 132 q 424 58 414 85 q 446 33 430 42 q 468 25 452 28 q 486 29 478 25 q 535 58 507 38 q 607 120 563 78 q 714 241 652 161 q 846 427 777 320 l 867 427 q 513 21 659 102 q 484 5 493 7 q 447 1 465 -1 q 414 7 426 3 l 401 11 q 395 14 399 12 l 390 17 q 318 131 336 43 q 314 123 317 128 q 310 115 311 118 q 220 21 269 47 q 177 8 205 12 q 126 3 148 3 l 104 3 q 49 14 71 3 q 10 71 24 30 q 0 135 0 100 q 1 160 0 147 m 139 80 q 154 31 140 41 q 160 30 156 31 q 165 29 163 29 q 175 28 170 28 q 293 125 238 28 q 313 158 308 149 l 313 167 q 311 196 311 180 q 330 318 311 250 q 372 476 361 436 q 371 474 372 475 q 370 472 370 473 q 313 457 343 469 q 147 155 193 406 q 139 85 139 122 q 139 80 139 83 m 519 494 q 534 513 522 495 q 677 677 658 653 l 679 677 q 684 683 680 678 q 689 692 688 688 q 707 713 693 696 q 711 719 708 715 q 715 725 714 723 q 837 965 837 880 q 836 977 837 971 q 815 1026 834 1004 q 774 1046 798 1046 q 770 1046 772 1046 l 766 1046 q 693 982 730 1038 q 647 895 675 955 l 647 893 q 557 637 600 787 q 554 628 557 636 q 541 576 551 616 q 525 517 530 537 q 519 494 522 510 m 689 309 l 689 338 l 689 309 z "},"e":{"ha":477,"x_min":1,"x_max":629,"o":"m 1 176 q 33 300 4 234 q 111 421 61 366 q 216 494 161 476 q 296 509 262 509 q 354 492 332 509 q 371 455 370 476 q 366 419 372 435 q 345 382 359 404 q 268 282 320 340 q 154 170 216 224 q 153 146 153 157 q 155 106 153 124 q 166 63 158 79 q 183 38 174 47 q 208 28 193 28 q 235 32 222 28 q 267 47 249 36 q 301 69 286 58 q 335 96 316 79 q 369 126 355 113 q 400 155 382 138 q 472 233 435 189 q 529 309 508 277 q 576 380 551 340 q 608 428 602 419 l 629 428 q 397 121 524 246 q 201 -3 284 12 q 155 -8 177 -8 q 99 1 125 -8 q 26 62 53 18 q 1 161 1 103 q 1 176 1 169 m 154 195 q 255 298 208 242 q 329 393 303 353 q 349 438 344 416 q 343 478 354 460 q 317 492 336 490 q 305 492 311 492 q 249 467 275 492 q 210 406 231 447 q 173 311 185 360 q 154 195 161 262 z "},"f":{"ha":521,"x_min":-115,"x_max":679,"o":"m -103 -401 q -26 -110 -81 -298 q 35 103 28 77 l 45 139 q 127 429 68 224 l 138 473 q 178 615 155 551 q 333 936 243 823 q 529 1071 422 1048 q 541 1072 535 1072 q 579 1057 562 1072 q 621 985 616 1032 q 621 967 621 976 q 610 900 621 934 q 564 808 593 852 q 490 710 534 763 q 371 575 420 620 q 322 533 328 538 q 311 525 320 531 q 294 514 302 519 q 286 505 287 508 q 268 425 273 445 q 253 372 263 408 q 239 319 243 336 q 183 123 190 147 q 181 112 181 116 q 181 106 180 107 l 182 106 q 243 -138 220 37 q 260 -364 260 -261 q 257 -449 260 -408 q 235 -646 247 -591 q 140 -799 209 -767 q 94 -810 116 -810 q 58 -803 75 -810 q -84 -646 -35 -758 q -115 -499 -115 -576 q -103 -401 -115 -452 m 0 -623 q -1 -627 -1 -625 q 4 -677 -1 -654 q 65 -785 21 -762 q 94 -791 79 -791 q 131 -783 112 -791 q 169 -756 152 -774 q 196 -711 185 -738 q 214 -659 206 -684 q 226 -597 221 -634 q 233 -535 231 -559 q 238 -473 235 -511 q 240 -446 239 -454 q 243 -365 243 -407 q 229 -155 243 -268 q 172 85 208 6 q 109 -140 157 32 q 36 -404 60 -311 q 23 -458 27 -439 q 12 -511 18 -476 q 2 -569 5 -545 q 0 -623 0 -593 m 32 212 q 34 224 31 220 q 39 228 36 228 q 44 230 41 229 q 52 227 46 230 q 67 217 58 224 q 92 195 76 210 q 127 158 107 180 q 150 148 133 156 q 179 135 168 140 l 204 123 q 289 106 248 106 q 374 125 331 106 q 455 174 416 144 q 532 246 494 204 q 600 332 569 288 q 659 427 631 377 l 679 427 q 600 301 643 360 q 505 194 556 243 q 397 116 454 145 q 283 87 339 87 q 197 107 239 87 l 171 118 q 165 121 169 119 q 160 123 162 123 q 166 117 162 121 q 172 110 170 112 l 158 97 q 117 143 131 129 q 54 179 73 165 q 32 212 35 193 m 54 204 q 75 186 62 193 q 54 204 65 196 m 296 542 q 358 591 349 583 q 528 785 448 678 q 585 884 565 836 q 602 968 602 925 q 602 983 602 976 q 581 1032 600 1010 q 541 1053 563 1053 q 536 1053 538 1053 l 533 1053 q 458 989 495 1044 q 353 747 408 909 q 319 640 333 692 q 312 614 317 631 q 304 589 307 597 q 296 542 296 552 z "},"g":{"ha":606,"x_min":-189,"x_max":747,"o":"m -187 -712 q -189 -690 -189 -701 q -184 -642 -189 -665 q -159 -564 -177 -608 q -125 -487 -141 -519 q -85 -412 -109 -456 q 85 -168 -21 -296 q 258 0 192 -39 q 290 97 275 40 q 294 110 292 101 q 298 122 297 118 q 224 31 262 60 q 140 4 199 12 q 104 1 120 1 q 47 12 69 1 q 8 68 22 28 q -1 132 -1 98 q 0 157 -1 144 q 74 358 16 277 q 205 472 132 439 q 331 499 263 498 q 338 500 334 500 q 444 473 401 500 q 472 443 461 463 q 487 394 482 423 q 492 345 491 366 q 493 292 493 324 l 493 271 l 475 271 l 475 292 q 433 460 475 430 q 389 473 416 473 q 311 456 357 473 q 146 154 191 404 q 137 79 137 108 q 153 29 137 39 q 167 26 159 26 q 211 45 184 26 q 328 232 280 96 q 339 271 332 245 q 351 311 347 298 l 358 342 l 399 338 l 421 338 q 424 317 424 324 l 424 315 q 425 309 424 313 q 425 302 425 304 q 426 272 426 288 q 406 58 426 189 l 401 33 q 357 -174 390 -31 q 333 -276 349 -205 q 308 -382 317 -347 q 284 -473 300 -416 q 255 -561 268 -529 q 223 -626 242 -593 q 184 -679 205 -659 q 68 -772 121 -738 q -41 -814 14 -806 q -76 -816 -58 -816 q -98 -815 -87 -816 q -167 -774 -142 -809 q -187 -712 -184 -748 m -170 -702 q -150 -761 -167 -736 q -96 -796 -127 -792 q -72 -794 -90 -797 q -53 -786 -54 -787 q 12 -739 -14 -769 q 63 -662 39 -709 q 99 -577 86 -614 q 126 -488 111 -541 q 165 -358 155 -398 q 245 -62 189 -260 q 253 -37 252 -43 q 257 -24 257 -29 q 252 -26 257 -23 q 237 -38 247 -30 q 213 -58 227 -46 q 180 -89 199 -71 q 141 -130 161 -108 q 95 -183 120 -153 q 44 -249 70 -214 q -10 -327 19 -283 q -68 -419 -39 -371 q -106 -488 -90 -457 q -140 -559 -123 -518 q -165 -634 -157 -601 q -170 -684 -170 -659 q -170 -702 -170 -692 m 386 47 q 406 60 391 50 q 459 101 421 70 q 535 171 496 132 q 627 279 574 211 q 726 425 680 347 l 747 425 q 645 272 699 343 q 553 162 591 201 q 473 88 515 123 q 420 46 431 54 q 396 32 409 39 l 386 47 z "},"h":{"ha":683,"x_min":-29,"x_max":860,"o":"m -29 0 q 24 233 17 205 q 72 415 64 387 q 87 467 83 453 l 90 476 l 92 479 q 129 610 113 565 q 387 1026 229 924 q 481 1065 432 1055 q 492 1066 486 1066 q 526 1055 510 1066 q 532 1051 529 1053 q 572 979 568 1025 q 573 962 573 970 q 559 890 573 928 q 493 775 542 841 q 413 670 445 709 q 309 550 380 631 q 296 535 301 541 q 284 522 292 530 q 272 507 277 514 l 232 460 l 229 458 q 212 400 225 440 q 211 395 212 397 q 179 277 209 387 q 212 339 197 311 q 250 398 228 366 q 293 452 272 430 q 339 488 313 473 q 390 503 365 502 q 431 499 410 503 q 474 490 452 496 q 514 469 497 483 q 534 436 530 455 q 537 410 537 425 q 526 325 537 377 q 493 224 519 296 q 458 111 463 146 q 456 72 455 90 q 490 41 458 41 q 568 92 511 41 q 702 234 625 142 q 840 427 779 327 l 860 427 q 770 288 825 361 q 664 161 715 216 q 568 69 612 107 q 504 25 524 31 q 408 1 458 5 q 393 1 400 1 q 335 17 355 1 q 326 75 326 41 q 325 79 326 77 q 330 142 325 110 q 347 220 336 176 q 369 295 359 264 q 393 368 379 326 q 412 427 407 409 q 420 465 423 450 q 390 482 417 480 q 387 482 389 482 q 125 106 275 482 q 123 98 123 103 l 93 0 l -29 0 m 236 496 q 244 504 238 496 q 253 514 250 510 q 418 706 384 663 q 553 965 553 874 q 553 978 553 972 q 541 1015 551 997 q 514 1040 530 1032 q 488 1046 500 1048 l 485 1046 q 411 983 445 1039 q 236 496 323 846 z "},"i":{"ha":399,"x_min":1,"x_max":559,"o":"m 3 132 q 1 162 1 146 q 12 251 1 203 q 57 379 26 315 q 131 498 89 444 l 204 498 q 147 306 179 433 q 112 93 112 165 q 138 22 112 31 q 149 21 143 21 q 264 92 186 22 q 417 255 341 161 q 539 427 494 349 l 559 427 q 447 256 511 338 q 323 120 382 174 q 216 33 265 65 q 143 0 168 0 q 44 42 79 5 q 3 132 8 78 m 207 600 q 235 621 218 625 q 248 606 243 616 q 248 585 253 595 q 221 564 239 562 q 208 577 212 567 q 207 600 204 587 z "},"j":{"ha":333,"x_min":-452,"x_max":543,"o":"m -452 -710 q -452 -688 -452 -699 q -448 -641 -452 -664 q -422 -563 -441 -608 q -389 -487 -404 -518 q -349 -412 -373 -456 q -178 -169 -285 -297 q -5 -1 -72 -40 q -3 5 -5 0 q 0 14 -1 10 q 11 45 7 34 q 26 96 20 74 q 27 98 27 96 q 28 101 28 99 q 29 104 28 103 l 40 143 q 52 185 43 155 q 62 225 60 216 q 64 227 64 225 q 96 338 76 272 q 123 428 111 393 q 154 493 136 464 q 157 496 155 494 q 160 500 159 498 l 220 500 q 161 140 178 229 q 155 115 157 129 q 152 100 154 110 q 149 85 150 90 q 146 74 148 81 q 144 64 145 67 l 139 39 q 138 34 138 37 q 136 29 137 31 q 111 -92 128 -15 q 93 -175 94 -168 q 69 -277 85 -206 q 44 -383 53 -349 q 20 -474 36 -418 q -9 -562 4 -530 q -40 -627 -22 -593 q -79 -679 -59 -660 q -197 -774 -144 -740 q -306 -815 -250 -808 q -340 -817 -322 -817 q -363 -817 -351 -817 q -431 -772 -403 -813 q -452 -710 -448 -746 m -433 -705 q -414 -764 -431 -739 q -359 -799 -391 -795 q -336 -796 -345 -799 q -317 -789 -328 -795 q -252 -737 -283 -774 q -138 -489 -188 -667 q -98 -359 -115 -416 q -18 -64 -77 -271 q -11 -39 -12 -44 q -7 -24 -7 -31 l -38 -48 q -293 -357 -165 -156 l -332 -419 q -370 -488 -353 -456 q -404 -561 -387 -519 q -429 -636 -421 -602 q -434 -686 -434 -661 q -433 -705 -434 -695 m 28 -4 l 28 5 q 43 7 33 5 q 84 17 54 8 q 146 40 114 25 q 225 86 178 55 q 317 160 272 117 q 417 270 363 202 q 522 422 472 338 l 543 422 q 193 43 383 152 q 107 4 150 18 q 51 -11 64 -9 q 28 -12 37 -12 l 28 -4 m 203 600 q 231 621 214 625 q 244 606 239 616 q 244 585 248 595 q 216 564 235 562 q 203 577 208 566 q 203 600 199 587 z "},"k":{"ha":683,"x_min":0,"x_max":835,"o":"m 0 0 q 53 233 46 205 q 102 415 85 357 q 109 439 104 421 q 117 467 113 457 l 119 476 l 121 479 q 158 608 143 567 q 416 1026 258 924 q 510 1065 461 1055 q 521 1066 515 1066 q 555 1055 539 1066 q 561 1051 558 1053 q 602 979 597 1023 q 600 940 604 961 q 591 899 597 918 q 570 853 585 879 q 545 807 556 827 q 511 758 533 787 q 474 709 488 728 q 432 657 460 690 q 390 607 404 624 q 345 555 375 591 q 301 505 314 519 l 261 460 l 258 458 q 241 400 254 440 q 240 395 241 397 l 138 0 l 0 0 m 235 300 l 249 309 q 295 297 271 297 q 336 305 315 297 q 421 356 382 323 q 483 431 460 389 q 501 488 501 465 q 500 500 501 494 l 519 494 q 520 486 520 490 q 500 425 521 461 q 433 342 477 382 q 340 288 389 302 q 320 284 339 286 q 300 283 302 283 q 354 230 330 263 q 392 169 378 197 q 421 114 406 140 q 452 78 437 87 l 454 75 q 458 73 456 75 q 469 68 461 71 q 486 65 477 66 q 504 67 494 64 q 524 77 515 70 q 655 208 581 121 q 814 427 730 295 l 835 427 q 493 31 684 155 q 488 28 491 30 q 482 25 484 26 q 435 7 458 14 q 400 0 412 1 l 389 0 l 379 0 q 338 11 356 1 q 307 40 320 21 q 284 80 294 60 q 268 131 275 100 q 256 185 260 162 q 245 244 251 209 q 235 300 239 279 m 265 494 q 273 504 267 495 l 282 513 q 441 698 412 662 q 582 956 576 865 q 582 978 583 967 q 570 1015 581 997 q 543 1040 559 1032 q 517 1046 529 1048 l 514 1046 q 440 983 473 1037 q 348 777 394 911 q 265 494 302 642 z "},"l":{"ha":391,"x_min":1,"x_max":557,"o":"m 1 167 q 1 192 1 179 q 20 318 1 249 q 102 608 75 534 q 135 704 109 633 l 135 705 q 155 753 138 713 q 452 1065 275 1025 q 463 1066 457 1066 q 503 1051 484 1066 q 545 978 541 1023 q 546 962 545 970 q 511 848 546 911 q 393 679 470 774 q 388 672 392 677 q 382 665 384 668 q 359 640 368 649 q 346 624 351 629 q 243 505 306 576 l 237 500 q 174 399 202 459 q 160 365 170 388 q 147 330 151 342 q 127 272 132 286 q 123 253 126 266 q 119 235 121 241 q 106 157 111 203 q 104 148 105 153 q 103 139 104 142 q 103 124 103 132 q 113 58 103 84 q 135 33 121 41 q 157 25 141 28 q 175 29 167 25 q 224 58 196 38 q 296 120 252 78 q 403 241 340 161 q 534 427 465 320 l 557 427 q 435 252 493 328 q 333 131 377 176 q 258 61 289 86 q 201 21 227 35 q 172 5 182 7 q 136 1 154 -1 q 104 7 115 3 q 90 11 96 9 q 84 14 87 12 q 79 17 80 17 q 24 77 44 34 q 1 167 5 121 m 208 494 q 224 513 211 496 q 367 677 347 653 l 368 677 q 371 682 369 679 q 375 687 373 684 q 378 692 376 689 q 396 713 382 695 q 406 725 401 721 q 526 966 526 882 q 525 977 526 972 q 503 1026 522 1004 q 463 1046 486 1046 q 458 1046 460 1046 l 456 1046 q 382 982 418 1038 q 336 895 366 959 l 336 893 q 248 637 294 796 l 243 628 q 229 577 240 616 q 214 517 218 537 q 208 494 212 510 z "},"m":{"ha":1042,"x_min":0,"x_max":1206,"o":"m 0 0 q 54 262 9 81 q 123 498 98 444 q 135 500 125 503 q 186 485 165 494 q 216 464 208 475 q 228 444 224 454 q 231 427 232 434 l 231 421 l 183 225 q 210 281 198 257 q 242 341 222 306 q 281 401 262 376 q 322 451 300 427 q 370 488 345 475 q 419 501 395 501 q 427 501 422 501 q 510 487 468 500 q 564 436 555 472 q 567 406 566 422 q 558 339 567 378 q 736 501 650 501 q 743 501 740 501 q 827 487 785 500 q 880 436 872 472 q 884 404 884 422 q 872 323 884 370 q 839 224 864 290 q 833 208 838 220 q 827 191 828 195 q 821 174 825 187 q 815 157 816 161 q 810 140 814 153 q 806 123 806 127 q 803 106 806 119 q 802 88 800 92 q 802 71 803 84 q 836 41 804 41 q 891 73 851 41 q 981 155 931 104 q 1087 277 1030 205 q 1186 421 1143 349 l 1206 421 q 1114 279 1169 352 q 1007 155 1059 207 q 913 67 956 102 q 850 25 869 31 q 741 0 795 2 q 739 0 740 0 q 693 19 713 0 q 671 66 673 39 q 671 75 671 71 q 680 159 670 110 q 701 249 690 213 q 733 350 712 286 q 758 425 755 414 q 766 464 769 450 q 736 481 763 479 q 732 481 734 481 q 684 465 708 481 q 631 414 656 448 q 583 343 606 380 q 537 256 560 307 q 497 166 513 205 q 461 79 480 127 q 432 0 440 37 q 358 37 386 0 q 339 90 339 62 q 343 117 339 102 q 383 244 355 154 q 414 344 394 281 q 440 425 435 406 q 449 465 452 450 q 419 481 446 479 q 415 481 417 481 q 367 465 391 481 q 315 414 340 448 q 266 343 289 380 q 219 256 243 307 q 179 166 195 204 q 143 79 163 129 q 114 0 122 37 l 0 0 z "},"n":{"ha":728,"x_min":0,"x_max":889,"o":"m 0 -1 q 21 111 8 43 q 68 315 35 180 q 126 497 102 451 q 138 496 131 497 q 164 491 145 496 q 196 479 182 486 q 221 457 210 472 q 231 421 232 441 l 183 224 l 208 275 q 251 354 231 319 q 299 424 271 388 q 357 480 326 460 q 419 500 388 500 q 427 500 423 500 q 510 486 468 499 q 564 435 555 471 q 566 409 566 424 q 555 322 566 376 q 522 222 549 294 q 515 204 521 218 q 508 185 510 191 q 502 167 506 180 q 495 148 497 155 q 491 130 494 141 q 487 110 488 118 q 485 91 486 101 q 485 71 484 80 q 519 40 487 40 q 597 90 540 40 q 731 233 654 140 q 869 425 808 326 l 889 425 q 800 287 854 359 q 693 160 745 214 q 597 68 642 106 q 533 24 553 30 q 467 4 503 11 q 420 -1 441 -1 q 403 0 411 -1 q 354 96 354 7 q 368 182 356 132 q 390 267 379 232 q 419 355 401 302 q 441 424 437 408 q 449 464 452 448 q 419 481 446 479 q 416 481 418 481 q 361 458 389 480 q 304 400 330 435 q 250 313 278 365 q 201 215 222 260 q 158 115 180 170 q 114 -1 121 25 l 0 -1 z "},"o":{"ha":543,"x_min":1,"x_max":696,"o":"m 6 157 q 1 214 1 186 q 34 348 1 284 q 212 486 89 454 q 310 497 257 498 q 330 497 320 497 q 372 488 356 495 q 401 463 389 481 l 400 463 q 424 425 414 450 q 430 404 427 415 q 434 387 433 393 l 435 380 q 441 309 441 344 q 399 136 441 217 q 465 165 430 141 q 529 219 500 189 q 589 292 558 250 q 638 362 619 333 q 675 422 657 391 l 696 422 q 659 361 678 391 q 607 285 640 330 q 543 207 574 240 q 472 147 511 173 q 397 117 433 121 l 389 117 q 279 7 344 43 q 182 -17 227 -17 q 86 16 130 -17 q 6 157 23 63 m 138 189 q 136 143 136 165 q 166 30 136 66 q 220 5 187 5 q 273 18 243 5 q 370 117 329 52 q 293 164 328 123 q 254 228 267 195 q 237 287 240 261 q 236 306 237 296 q 239 338 236 322 q 248 378 243 364 q 260 404 254 393 q 325 471 286 452 l 321 471 q 315 471 318 471 q 199 384 252 471 q 138 189 149 299 m 256 288 q 271 234 258 264 q 307 175 283 203 q 379 135 341 137 q 422 306 422 216 q 408 411 422 357 q 366 461 396 457 q 361 461 363 461 q 318 445 340 461 q 277 395 294 427 q 266 371 271 383 q 258 335 262 359 q 255 303 255 319 q 256 288 255 295 z "},"p":{"ha":694,"x_min":-461,"x_max":835,"o":"m -461 -713 l -449 -699 q -390 -775 -425 -750 q -301 -803 -354 -800 q -291 -803 -296 -803 q -245 -798 -264 -803 q -203 -764 -222 -790 q -176 -721 -184 -738 q -148 -655 -168 -705 q -143 -644 -144 -648 q -124 -584 -134 -622 q -83 -389 -115 -545 q 5 69 -52 -233 q 15 118 9 94 q 24 162 20 143 q 34 205 28 182 q 44 243 41 229 q 55 280 47 256 q 64 313 62 304 q 75 345 66 321 q 84 373 83 369 q 94 401 85 377 q 103 427 103 426 l 131 494 q 141 491 135 493 q 164 483 148 490 q 191 467 180 475 q 211 446 203 459 q 216 419 219 433 q 187 285 210 391 q 275 404 249 372 q 396 497 340 492 q 418 498 408 498 q 538 414 508 498 q 553 327 553 373 q 529 202 553 269 q 399 29 486 84 q 483 66 439 42 q 579 135 526 91 q 693 251 632 178 q 814 419 753 324 l 835 419 l 832 415 q 705 237 769 314 q 585 115 641 160 q 484 45 528 70 q 396 8 439 20 q 306 -4 351 -4 q 248 3 273 -4 q 160 40 185 12 q 157 43 159 41 q 154 50 156 45 q 155 60 152 56 q 162 64 158 64 q 168 62 166 64 l 171 60 q 182 53 175 57 q 212 40 190 48 q 254 28 233 31 q 265 28 259 28 q 299 33 281 28 q 345 60 325 39 q 409 273 385 136 q 423 397 423 349 q 413 457 423 437 q 393 471 406 472 q 290 393 349 466 q 225 307 264 362 q 179 241 186 251 q 170 191 178 240 l 144 62 q 126 -42 136 21 q 107 -157 115 -105 q 86 -275 99 -210 q 61 -394 74 -340 q 30 -506 49 -448 q -11 -609 11 -564 q -62 -696 -32 -654 q -126 -764 -92 -738 q -205 -806 -160 -791 q -290 -819 -245 -819 q -302 -819 -296 -819 q -461 -713 -416 -815 z "},"q":{"ha":716,"x_min":0,"x_max":871,"o":"m 1 161 q 75 363 17 282 q 207 475 134 444 q 332 504 264 502 q 341 504 336 504 q 446 478 403 504 q 473 448 463 468 q 488 398 484 427 q 493 349 492 370 q 494 296 494 328 l 494 275 l 476 275 l 476 296 q 473 368 476 343 q 471 387 473 374 q 435 463 460 446 q 388 475 415 475 q 380 475 385 475 q 313 458 349 473 q 147 157 193 408 q 139 87 139 123 q 139 81 139 84 q 154 32 140 41 q 168 28 161 28 q 212 47 186 28 q 258 96 241 71 q 269 111 262 100 q 279 126 276 121 q 289 144 281 130 q 298 165 292 152 q 307 183 305 178 q 345 285 326 222 q 349 299 345 286 q 355 322 352 311 q 359 334 359 334 l 411 329 q 427 311 424 329 q 426 291 427 304 q 425 277 425 278 q 419 199 425 258 q 417 185 419 197 q 412 158 415 174 q 408 131 410 142 q 407 123 408 126 l 407 118 q 481 105 444 105 q 490 106 486 105 q 572 127 530 107 q 651 178 614 148 q 725 249 689 208 q 792 333 762 290 q 850 425 823 377 l 871 425 q 791 301 835 359 q 696 193 747 242 q 588 115 646 144 q 475 86 530 86 q 407 98 441 86 l 407 92 q 416 72 410 87 q 441 -8 433 34 q 478 -234 466 -105 q 486 -388 486 -317 q 484 -464 486 -428 q 459 -663 473 -605 q 366 -802 432 -772 q 338 -811 353 -809 q 329 -812 335 -812 q 310 -814 322 -814 q 285 -806 296 -812 q 134 -636 172 -751 q 132 -635 132 -636 q 111 -510 111 -574 q 122 -415 111 -463 q 200 -122 146 -307 q 244 31 230 -22 q 249 46 245 36 q 254 62 253 57 q 248 54 253 60 q 235 42 243 50 q 225 33 227 35 q 141 8 200 15 q 107 5 123 5 q 50 17 72 5 q 10 72 24 32 q 0 136 0 102 q 1 161 0 149 m 228 -583 q 226 -596 228 -583 q 224 -638 224 -608 q 229 -693 224 -668 q 292 -787 244 -766 q 313 -794 298 -791 l 328 -794 q 355 -787 337 -793 q 421 -710 396 -768 q 451 -611 446 -653 q 463 -484 457 -569 q 464 -476 464 -479 q 465 -469 465 -473 q 465 -461 465 -465 q 468 -373 468 -419 q 465 -277 468 -327 q 443 -91 459 -182 q 404 54 426 -1 q 401 62 403 56 q 397 69 399 67 q 386 29 395 56 q 383 18 385 25 q 380 9 381 11 q 377 -4 379 5 q 374 -18 375 -14 q 338 -141 366 -44 q 294 -298 311 -237 q 262 -418 277 -358 q 249 -471 254 -449 q 237 -525 243 -492 q 228 -583 231 -557 z "},"r":{"ha":477,"x_min":0,"x_max":648,"o":"m 4 522 q 38 563 14 543 q 72 578 56 577 q 86 575 79 578 q 111 556 102 570 q 129 522 121 542 q 144 492 137 501 q 161 478 149 486 q 214 468 171 471 q 223 467 217 468 q 244 461 229 466 q 273 449 260 456 q 299 428 286 442 q 319 395 313 414 q 323 363 323 381 q 323 347 323 355 q 306 282 320 317 q 297 262 303 275 q 289 244 291 250 q 283 234 287 240 q 271 207 280 227 q 255 169 262 187 q 241 127 248 151 q 232 85 234 104 q 234 52 229 67 q 250 31 238 37 q 275 25 264 21 q 342 71 297 31 q 392 117 362 87 q 399 124 394 119 q 406 131 404 129 q 514 259 448 174 q 628 424 581 344 l 648 424 q 358 58 515 201 q 352 53 356 56 q 346 47 348 50 q 298 9 322 25 q 257 -15 273 -7 q 223 -26 240 -22 q 200 -30 205 -30 q 191 -31 195 -31 l 189 -31 l 184 -31 q 138 -8 153 -31 q 123 43 123 14 q 127 111 123 71 l 127 117 q 128 119 127 117 q 129 121 129 120 q 205 304 140 183 q 218 341 216 324 q 216 368 220 357 q 204 388 213 379 q 187 401 195 397 q 168 409 179 406 q 152 414 157 413 q 143 415 148 414 q 113 419 119 418 l 93 425 q 54 444 66 437 q 12 480 31 458 q 1 508 0 494 q 4 522 1 515 z "},"s":{"ha":459,"x_min":-49,"x_max":607,"o":"m -46 20 q -32 43 -49 31 q 26 53 -18 53 q 41 53 33 53 q 103 54 79 53 q 107 104 107 75 l 107 123 q 106 160 106 137 l 104 161 l 104 163 l 96 307 q 95 333 95 321 q 97 370 95 353 l 100 382 q 102 390 100 385 q 109 410 103 395 q 123 438 115 425 q 145 467 131 452 q 176 492 159 482 l 178 492 q 183 496 180 494 q 229 509 205 509 q 236 509 232 509 q 268 478 263 506 q 269 463 267 468 q 267 448 270 458 q 263 433 264 437 q 258 417 263 428 q 252 402 254 407 q 245 388 250 398 q 237 375 239 378 q 230 363 235 372 q 224 351 225 354 q 231 298 224 338 q 232 296 231 297 q 240 251 235 276 q 248 213 245 227 q 252 193 251 199 l 254 176 q 256 165 255 173 q 257 154 256 158 l 257 135 q 256 107 257 117 q 254 98 256 106 q 252 86 253 90 q 586 422 437 162 l 607 422 q 245 64 450 139 q 220 17 236 36 q 194 -7 205 -2 l 183 -12 l 183 -11 q 94 -27 149 -27 q 31 -22 65 -27 l 29 -22 q 21 -20 28 -22 q 8 -17 14 -18 q -6 -12 3 -15 q -21 -5 -15 -9 q -34 3 -28 -2 q -43 12 -40 7 q -45 14 -45 12 l -45 16 q -46 20 -46 17 m -22 28 q -17 18 -25 24 q 7 12 -11 15 q 48 9 25 8 q 82 20 71 9 q 96 35 90 25 l 40 35 q 17 35 27 35 q -21 29 -14 35 q -22 28 -22 29 m 203 463 q 203 451 203 458 q 208 412 203 435 q 214 378 214 380 q 215 372 214 375 q 229 400 218 380 q 246 436 240 419 q 249 469 252 454 q 232 492 246 492 q 220 489 227 492 q 203 463 206 481 z "},"t":{"ha":430,"x_min":0,"x_max":585,"o":"m 0 628 q 4 635 1 630 q 8 642 7 640 q 86 635 32 635 q 160 639 122 635 q 192 699 175 671 q 236 762 210 728 q 293 814 262 795 q 347 830 319 829 q 357 829 352 830 l 374 821 q 298 644 332 721 q 468 686 366 655 q 460 675 465 683 q 452 664 454 667 q 292 628 362 640 q 161 240 191 399 q 153 142 153 184 q 154 113 153 126 q 155 107 155 111 q 159 96 156 104 q 167 81 163 88 q 179 67 172 75 q 196 57 187 60 q 219 55 205 54 q 249 64 233 56 q 251 64 250 64 q 253 65 252 65 q 255 66 254 66 q 257 68 256 67 q 354 142 304 94 q 447 248 404 191 q 516 345 489 304 q 564 421 543 385 l 585 421 q 551 365 570 395 q 497 285 532 334 q 427 193 462 235 q 346 110 391 151 q 257 47 300 69 q 231 33 247 41 q 175 11 214 24 q 118 -1 141 -1 q 111 -1 115 -1 q 41 42 71 2 q 12 134 12 83 q 12 145 12 139 q 21 245 12 190 q 153 623 70 441 q 86 618 111 618 q 0 628 35 618 z "},"u":{"ha":694,"x_min":0,"x_max":851,"o":"m 3 85 q 0 115 0 99 q 43 278 0 180 l 136 498 q 148 497 140 498 q 173 492 155 496 q 205 479 191 487 q 229 457 218 472 q 237 422 239 442 q 231 387 236 406 q 217 344 227 368 q 201 307 207 319 q 181 264 195 294 q 164 228 167 234 q 158 213 162 223 q 151 199 153 203 q 123 129 133 156 q 114 74 114 101 q 129 33 114 47 q 131 32 130 33 q 134 31 133 31 q 148 26 139 28 q 180 24 157 23 q 221 37 203 26 q 233 49 223 39 q 268 89 250 64 q 298 135 286 114 q 331 198 311 157 q 359 258 351 239 q 389 328 368 277 q 415 390 410 379 l 457 494 l 555 463 q 498 240 527 323 q 454 69 459 127 q 455 63 454 67 q 460 52 456 58 q 469 42 464 46 q 486 40 475 39 q 510 49 496 41 q 661 190 567 85 q 831 421 754 295 l 851 421 q 689 193 790 308 q 522 35 587 79 q 440 1 480 3 q 432 1 436 1 q 377 34 396 1 q 358 117 358 67 q 358 127 358 122 q 382 245 360 184 q 350 189 372 228 q 317 131 328 150 q 288 86 306 113 q 255 44 271 60 q 222 18 239 28 l 222 17 q 154 -1 197 -1 q 141 -1 147 -1 q 8 64 36 -1 q 5 74 7 67 q 3 85 3 81 z "},"v":{"ha":509,"x_min":0,"x_max":659,"o":"m 3 86 q 0 117 0 100 q 43 279 0 181 l 136 500 q 148 499 140 500 q 173 493 155 498 q 205 481 191 488 q 229 458 218 473 q 237 424 239 444 q 226 374 235 403 q 210 330 217 346 q 185 274 203 314 q 164 229 167 235 q 151 201 158 215 q 123 130 133 156 q 114 76 114 103 q 129 36 114 50 q 183 22 144 22 q 191 23 186 22 q 213 30 197 24 q 245 43 229 35 q 282 69 260 52 q 321 109 303 86 q 336 131 332 123 l 336 132 q 326 169 326 144 q 330 203 326 184 q 367 258 339 252 q 387 253 380 260 l 387 252 q 410 340 402 300 q 418 404 418 381 q 417 445 419 427 q 412 468 414 462 q 407 476 409 474 l 403 482 q 393 490 393 482 q 403 500 393 500 q 422 488 413 500 q 430 473 427 482 q 437 441 434 464 q 438 418 438 431 q 437 391 438 406 q 423 314 434 362 q 393 210 412 267 q 363 138 385 180 q 372 137 367 137 q 387 138 377 137 q 407 143 396 139 q 431 153 418 146 q 460 170 445 159 q 491 196 475 181 q 526 233 508 210 q 562 282 544 255 q 600 346 581 309 q 639 427 620 383 l 659 427 q 588 288 625 347 q 521 197 551 229 q 460 147 491 166 q 410 123 429 128 q 374 118 391 118 q 355 121 358 118 l 353 121 q 243 18 308 52 q 155 -3 205 -3 q 82 7 121 -3 q 80 7 81 7 q 78 8 79 8 q 76 9 77 8 q 74 9 75 9 q 71 10 73 9 q 68 11 68 11 l 65 12 q 8 66 25 28 q 5 75 7 68 q 3 86 3 82 m 347 149 q 375 211 366 185 q 374 240 380 233 q 371 240 374 241 q 347 199 355 235 q 345 170 345 182 q 347 149 345 158 z "},"w":{"ha":823,"x_min":0,"x_max":978,"o":"m 3 86 q 0 117 0 100 q 43 279 0 181 l 136 500 q 148 499 140 500 q 173 493 155 498 q 205 481 191 488 q 229 458 218 473 q 237 424 239 444 q 226 374 235 403 q 210 330 217 346 q 185 274 203 314 q 164 229 167 235 q 151 201 158 215 q 123 130 133 156 q 114 76 114 103 q 129 36 114 50 q 183 22 144 22 q 195 25 188 24 q 252 60 228 33 q 313 154 283 96 l 313 155 l 314 157 l 338 216 q 363 279 346 243 l 456 500 q 467 499 460 500 q 492 493 474 498 q 524 481 510 488 q 547 458 537 473 q 555 424 557 444 q 545 374 554 403 q 530 330 536 345 q 504 274 524 315 q 484 229 485 233 q 471 201 477 215 q 442 130 451 156 q 433 76 433 104 q 449 36 433 50 q 503 22 465 22 q 511 23 505 22 q 532 30 516 24 q 564 43 549 35 q 601 69 580 52 q 640 109 623 86 q 656 131 652 123 l 656 132 q 645 171 645 146 q 648 203 645 185 q 686 258 659 252 q 707 253 699 260 l 707 252 q 729 340 722 300 q 738 404 737 381 q 736 445 739 427 q 731 468 734 462 q 726 476 728 474 q 721 482 724 482 q 713 490 713 482 q 721 500 713 500 q 742 488 732 500 q 749 473 746 482 q 755 441 753 464 q 757 418 757 431 q 755 391 757 406 q 742 314 753 362 q 713 210 732 266 q 681 138 699 168 q 692 137 685 138 q 710 139 699 136 q 733 145 721 142 q 763 159 746 149 q 797 183 779 170 q 834 219 814 196 q 874 270 854 242 q 916 338 894 298 q 958 427 937 378 l 978 427 q 907 288 945 347 q 840 197 870 229 q 779 147 810 166 q 729 123 748 128 q 693 118 710 118 q 673 121 679 118 l 671 121 q 562 18 628 52 q 475 -3 524 -3 q 401 7 441 -3 q 399 7 401 7 q 397 8 398 8 q 395 9 397 8 q 393 9 394 9 q 390 10 392 9 q 387 11 388 11 l 385 12 q 328 66 342 29 q 322 86 325 71 q 319 129 317 107 q 283 71 307 103 q 282 69 283 69 q 278 63 281 67 q 273 57 275 59 q 268 50 271 55 q 260 41 264 45 q 254 33 257 37 q 200 1 229 7 q 155 -3 178 -3 q 82 7 121 -3 q 80 7 81 7 q 78 8 79 8 q 76 9 77 8 q 74 9 75 9 q 71 10 73 9 q 68 11 68 11 l 65 12 q 8 66 25 28 q 5 75 7 68 q 3 86 3 82 m 667 149 q 694 211 686 185 q 693 240 700 233 q 690 240 692 241 q 667 199 675 236 q 663 168 663 181 q 667 149 663 155 z "},"x":{"ha":696,"x_min":73,"x_max":846,"o":"m 75 -9 q 151 110 86 30 q 268 243 216 190 l 268 249 q 267 286 267 261 q 266 328 267 311 q 264 367 266 344 q 260 405 263 390 q 253 435 257 420 q 241 457 248 450 q 224 467 233 465 l 221 467 l 220 467 l 218 467 l 214 467 q 203 463 204 463 q 181 449 192 458 q 165 433 171 439 l 160 425 l 153 425 l 139 425 q 144 433 140 428 q 159 451 147 438 q 185 474 171 464 q 224 492 200 484 q 275 500 248 500 q 354 468 326 500 q 391 392 376 441 q 411 293 407 342 l 412 292 q 559 492 547 444 q 571 498 562 500 q 576 488 579 496 q 415 267 562 428 l 414 267 q 415 210 414 260 q 419 109 416 160 q 429 35 422 58 l 431 35 q 432 32 431 33 q 441 25 435 26 q 455 24 448 23 q 469 28 463 26 q 480 33 475 31 l 485 35 q 823 425 616 109 l 846 425 q 579 86 699 201 q 578 85 579 85 q 573 80 576 82 q 568 74 571 77 q 562 69 564 71 q 561 68 562 69 q 559 68 560 68 q 559 66 559 67 q 558 65 558 66 q 526 39 541 50 q 504 24 511 28 l 497 20 q 452 3 465 3 l 450 3 l 449 3 l 447 3 q 424 3 433 3 q 401 5 416 3 q 377 11 387 7 q 354 22 368 15 q 332 41 341 30 q 313 68 323 52 q 295 106 302 85 q 281 156 288 127 q 271 220 275 184 q 158 91 215 161 q 93 -14 102 21 q 83 -21 90 -21 l 82 -21 q 75 -9 73 -19 z "},"y":{"ha":715,"x_min":-132,"x_max":864,"o":"m -130 -708 q -132 -686 -132 -697 q -127 -640 -132 -663 q -102 -562 -120 -606 q -68 -486 -83 -517 q -28 -411 -52 -455 q 142 -166 36 -295 q 315 1 249 -37 q 317 4 316 2 q 318 9 317 6 q 321 16 319 13 q 326 30 322 19 q 332 47 330 41 q 347 98 342 78 q 348 100 348 99 q 349 104 349 102 q 350 107 349 106 q 325 72 339 91 q 273 25 300 43 q 220 5 244 9 q 165 2 191 2 q 33 68 59 2 q 26 87 28 82 q 24 119 24 102 q 66 281 24 184 l 160 503 q 171 502 164 503 q 197 495 178 500 q 229 483 215 490 q 252 460 242 475 q 261 427 262 446 q 250 377 259 406 q 234 332 241 348 q 209 276 227 315 q 187 231 190 237 q 176 203 180 217 q 154 149 161 168 q 140 105 146 130 q 137 64 134 81 q 153 37 140 48 q 184 26 162 28 q 224 26 207 23 q 254 36 235 28 q 322 90 292 52 q 361 146 347 119 q 383 227 381 219 l 385 228 q 416 340 396 273 q 444 429 436 407 q 475 496 458 468 q 478 498 475 496 q 481 501 480 500 l 541 503 q 482 142 501 244 q 476 118 479 132 q 473 103 475 113 q 469 87 471 92 q 467 77 469 84 q 465 66 466 70 l 460 40 l 458 39 q 540 83 498 56 q 631 155 581 111 q 736 269 682 199 q 843 424 791 338 l 864 424 q 514 45 703 153 q 487 31 509 42 q 454 16 465 20 q 414 -174 447 -26 q 390 -276 406 -204 q 365 -382 374 -348 q 341 -472 357 -416 q 312 -560 325 -528 q 280 -625 299 -591 q 241 -677 262 -658 q 124 -772 177 -738 q 16 -814 71 -806 q -19 -816 -1 -816 q -41 -815 -30 -816 q -110 -770 -82 -810 q -130 -708 -127 -744 m -113 -702 q -93 -761 -110 -736 q -39 -796 -68 -794 q -16 -794 -33 -797 q 4 -787 -5 -792 q 69 -736 36 -772 q 183 -486 133 -663 q 222 -358 204 -422 q 302 -61 241 -278 q 310 -36 309 -41 q 314 -22 314 -28 q 309 -25 314 -22 q 294 -37 304 -28 q 270 -57 283 -45 q 237 -88 256 -69 q 198 -129 218 -106 q 152 -182 177 -151 q 101 -247 127 -213 q 47 -326 76 -281 q -11 -418 18 -370 q -50 -486 -33 -455 q -83 -559 -66 -517 q -108 -633 -100 -600 q -113 -684 -113 -659 q -113 -702 -113 -692 z "},"z":{"ha":600,"x_min":-97,"x_max":774,"o":"m -96 -709 q -97 -688 -97 -699 q -92 -641 -97 -664 q -67 -563 -85 -608 q -33 -487 -49 -518 q 7 -412 -18 -456 q 177 -169 71 -297 q 350 0 283 -40 q 371 57 357 14 q 349 77 361 69 q 326 86 337 84 q 302 86 315 89 q 279 80 290 84 q 257 68 269 77 q 237 54 245 60 q 218 38 229 47 q 202 22 208 28 q 190 9 197 17 q 182 0 182 1 l 61 7 q 99 156 67 75 q 169 317 130 237 q 220 433 208 397 q 210 452 224 447 q 191 452 199 455 q 170 442 180 449 q 156 429 160 435 l 151 424 l 132 424 q 138 433 134 427 q 154 452 141 438 q 182 476 167 466 q 224 494 198 486 q 271 501 246 501 q 279 501 275 501 l 285 501 q 328 486 313 501 q 343 444 343 471 q 343 437 343 440 q 318 302 341 370 q 251 145 296 233 q 204 53 206 58 q 286 107 236 87 q 360 121 321 121 q 389 119 374 121 q 452 98 425 115 q 465 89 453 98 q 491 34 491 66 q 489 16 491 25 q 449 -175 479 -43 q 425 -277 441 -205 q 400 -383 409 -349 q 376 -473 392 -417 q 347 -561 360 -530 q 316 -626 334 -593 q 277 -679 297 -659 q 159 -773 213 -739 q 50 -815 106 -808 q 16 -817 34 -817 q -7 -817 5 -817 q -75 -771 -49 -811 q -96 -709 -94 -745 m -78 -704 q -58 -764 -75 -739 q -4 -799 -33 -795 q 20 -796 12 -799 q 39 -789 26 -795 q 104 -737 75 -771 q 170 -631 144 -692 q 218 -489 195 -570 q 257 -359 235 -437 q 338 -64 275 -283 q 345 -39 343 -48 q 349 -24 349 -26 q 331 -36 347 -24 q 283 -79 315 -48 q 214 -152 252 -109 q 124 -265 176 -194 q 24 -419 73 -336 q -15 -488 1 -456 q -48 -561 -31 -519 q -73 -636 -66 -602 q -79 -686 -79 -661 q -78 -704 -79 -694 m 444 64 q 546 151 486 94 q 632 250 590 195 q 711 360 675 304 q 754 424 747 415 l 774 424 q 543 118 673 244 q 460 47 506 81 l 444 64 z "},"":{"ha":411,"x_min":0,"x_max":0,"o":""},"":{"ha":1112,"x_min":-18,"x_max":1044,"o":"m -16 241 q 24 321 -18 292 q 66 337 44 334 q 115 333 88 340 q 157 320 141 326 q 204 299 174 315 q 243 281 235 284 q 269 322 258 293 q 293 400 280 352 q 315 476 305 448 l 191 476 l 191 505 l 325 505 l 371 633 q 335 627 356 631 q 299 621 315 623 q 260 619 283 619 q 0 660 143 619 l 11 686 q 258 648 131 648 q 316 652 294 648 q 382 667 338 656 q 561 964 435 828 q 699 1050 614 1025 q 838 1065 781 1074 q 921 997 895 1056 q 911 895 941 947 q 840 807 889 850 q 732 730 791 763 q 617 675 674 698 q 514 642 559 652 l 464 505 l 699 505 l 699 476 l 454 476 q 391 349 439 424 q 313 245 342 275 q 343 225 330 235 q 376 200 357 216 q 401 180 396 184 q 450 143 415 170 q 496 109 484 117 q 528 87 507 100 q 567 68 549 75 q 713 33 634 33 q 871 62 783 33 q 1025 143 958 92 l 1044 121 q 880 35 973 66 q 715 4 787 4 q 555 39 635 4 q 404 143 488 71 q 282 229 345 189 q 171 179 240 201 q 57 165 102 159 q 7 192 28 171 q -16 241 -14 214 m 14 252 q 36 205 14 221 q 136 211 67 180 q 218 258 170 227 q 194 269 210 262 q 171 279 178 276 q 157 286 166 281 q 143 292 148 290 q 75 307 105 309 q 32 291 51 306 q 14 252 14 276 m 521 675 q 658 724 585 690 q 798 808 731 757 q 890 909 865 859 q 895 986 906 954 q 882 1006 890 998 q 868 1017 874 1014 q 851 1025 863 1020 q 774 1008 820 1034 q 690 943 729 982 q 636 882 660 913 q 588 809 612 852 q 556 748 565 767 q 521 675 547 730 z "},"":{"ha":831,"x_min":-2,"x_max":543,"o":"m 0 844 q 22 912 -2 871 q 87 990 47 954 q 47 1054 80 1012 l 61 1068 q 104 1003 94 1029 q 178 1057 153 1046 q 236 1064 212 1074 q 272 1037 260 1055 q 282 997 283 1020 q 275 951 281 975 q 254 901 269 928 q 228 852 240 873 q 200 806 216 831 q 179 770 185 781 q 156 729 174 760 q 134 688 139 698 q 118 654 129 679 q 103 614 106 629 q 95 576 99 599 q 92 529 92 553 q 134 449 92 469 q 236 467 174 427 q 292 511 267 487 q 337 566 316 534 q 371 622 357 597 q 406 690 385 647 l 443 771 q 469 837 444 774 q 496 903 494 900 l 528 895 q 512 854 523 882 q 497 814 502 827 q 433 623 451 689 q 418 440 418 555 l 418 389 l 543 389 l 543 358 l 418 358 q 390 151 418 227 l 543 151 l 543 121 l 376 121 q 323 46 359 85 q 231 0 281 4 q 231 9 231 3 q 232 18 231 16 q 244 22 238 18 q 313 121 292 45 l 215 121 l 215 151 l 319 151 q 322 163 322 159 q 328 213 326 186 q 331 259 330 240 q 331 311 331 278 q 332 358 332 343 l 215 358 l 215 389 l 332 389 q 334 471 334 430 q 333 494 334 479 q 332 517 332 509 l 328 513 q 243 433 287 462 q 79 440 159 379 q 28 502 47 465 q 11 579 10 539 q 21 639 12 609 q 48 701 30 669 q 80 753 66 733 q 117 806 93 772 q 148 849 127 821 q 184 900 168 877 q 212 945 200 923 q 218 1029 248 1008 q 203 1036 212 1034 q 186 1034 195 1037 q 169 1027 177 1031 q 151 1017 161 1024 q 136 1005 141 1009 q 121 992 130 1000 q 110 983 112 985 q 108 889 119 938 q 64 819 97 840 q 23 813 45 805 q 0 844 1 822 m 18 854 q 34 837 19 840 q 57 840 49 833 q 89 897 81 859 q 90 970 96 936 q 39 908 60 941 q 18 854 18 875 z "},"":{"ha":1301,"x_min":465,"x_max":965,"o":"m 465 353 l 465 383 l 965 383 l 965 353 l 465 353 z "},"":{"ha":589,"x_min":0,"x_max":0,"o":""},"":{"ha":1178,"x_min":0,"x_max":0,"o":""},"":{"ha":589,"x_min":0,"x_max":0,"o":""},"":{"ha":1178,"x_min":0,"x_max":0,"o":""},"":{"ha":393,"x_min":0,"x_max":0,"o":""},"":{"ha":294,"x_min":0,"x_max":0,"o":""},"":{"ha":196,"x_min":0,"x_max":0,"o":""},"":{"ha":196,"x_min":0,"x_max":0,"o":""},"":{"ha":147,"x_min":0,"x_max":0,"o":""},"":{"ha":235,"x_min":0,"x_max":0,"o":""},"":{"ha":65,"x_min":0,"x_max":0,"o":""},"":{"ha":1301,"x_min":465,"x_max":965,"o":"m 465 353 l 465 383 l 965 383 l 965 353 l 465 353 z "},"":{"ha":1301,"x_min":465,"x_max":965,"o":"m 465 353 l 465 383 l 965 383 l 965 353 l 465 353 z "},"":{"ha":1301,"x_min":465,"x_max":965,"o":"m 465 353 l 465 383 l 965 383 l 965 353 l 465 353 z "},"":{"ha":1495,"x_min":465,"x_max":1160,"o":"m 465 353 l 465 383 l 1160 383 l 1160 353 l 465 353 z "},"":{"ha":2190,"x_min":465,"x_max":1854,"o":"m 465 353 l 465 383 l 1854 383 l 1854 353 l 465 353 z "},"":{"ha":298,"x_min":0,"x_max":158,"o":"m 0 905 l 0 908 l 0 911 q 2 917 1 913 q 4 924 3 922 q 5 928 4 926 q 70 1018 22 972 q 153 1069 119 1063 l 158 1048 q 104 1018 135 1044 q 49 961 73 992 l 56 961 q 95 945 79 961 q 113 905 111 928 q 96 864 113 880 q 56 848 80 848 q 17 864 34 848 q 0 905 0 880 z "},"":{"ha":336,"x_min":0,"x_max":158,"o":"m 0 869 q 55 901 24 876 q 110 958 87 927 q 106 958 109 958 q 103 957 104 957 q 64 973 80 957 q 46 1013 47 989 l 46 1014 q 62 1054 46 1038 q 103 1069 79 1069 q 141 1054 125 1069 q 158 1014 158 1038 l 158 1010 l 158 1007 q 156 1001 157 1005 q 154 994 155 996 q 153 990 154 991 q 88 901 136 946 q 5 850 40 856 l 0 869 z "},"":{"ha":382,"x_min":0,"x_max":304,"o":"m 0 905 l 0 908 l 0 911 q 2 917 1 913 q 4 924 3 922 q 5 928 4 926 q 70 1018 22 972 q 153 1069 119 1063 l 158 1048 q 104 1018 135 1044 q 49 961 73 992 l 56 961 q 95 945 79 961 q 113 905 111 928 q 96 864 113 880 q 56 848 80 848 q 17 864 34 848 q 0 905 0 880 m 146 832 l 146 836 l 146 839 l 150 851 q 151 856 150 854 q 216 945 168 900 q 298 996 264 989 l 304 977 q 249 945 281 970 q 195 888 218 919 q 198 888 196 888 q 201 889 201 889 q 241 873 224 889 q 258 833 257 857 l 258 832 q 242 792 258 808 q 201 777 226 777 q 163 792 180 777 q 146 832 146 808 z "},"":{"ha":455,"x_min":0,"x_max":304,"o":"m 0 869 q 55 901 24 876 q 110 958 87 927 q 106 958 109 958 q 103 957 104 957 q 64 973 80 957 q 46 1013 47 989 l 46 1014 q 62 1054 46 1038 q 103 1069 79 1069 q 141 1054 125 1069 q 158 1014 158 1038 l 158 1010 l 158 1007 q 156 1001 157 1005 q 154 994 155 996 q 153 990 154 991 q 88 901 136 946 q 5 850 40 856 l 0 869 m 146 798 q 200 828 169 802 q 256 885 232 854 l 249 885 q 210 901 226 885 q 192 940 193 917 q 208 981 192 966 q 249 997 224 997 q 288 981 271 997 q 304 940 304 965 l 304 937 l 304 935 q 302 928 304 932 q 300 922 300 924 q 298 918 300 920 q 234 828 282 874 q 151 777 185 783 l 146 798 z "},"":{"ha":235,"x_min":0,"x_max":0,"o":""},"":{"ha":294,"x_min":0,"x_max":0,"o":""},"":{"ha":1010,"x_min":98,"x_max":851,"o":"m 98 406 l 98 435 l 196 435 q 196 633 184 511 l 98 633 l 98 663 l 203 663 q 293 867 224 774 q 456 1013 362 960 q 644 1065 549 1065 q 851 994 760 1065 l 836 971 q 672 1039 743 1032 q 552 1000 600 1046 q 475 871 505 955 q 432 663 446 788 l 710 663 l 710 633 l 428 633 q 428 435 412 537 l 710 435 l 710 406 l 432 406 q 463 238 443 310 q 517 116 484 167 q 595 45 551 65 q 701 36 640 24 q 836 96 762 47 l 851 74 q 644 1 761 1 q 456 54 549 1 q 293 201 362 107 q 203 406 224 294 l 98 406 z "},"":{"ha":500,"x_min":0,"x_max":500,"o":"m 0 0 l 0 500 l 500 500 l 500 0 l 0 0 z "}}}
